  0
SECTION
  2
HEADER
  9
$ACADVER
  1
AC1027
  9
$ACADMAINTVER
 70
105
  9
$DWGCODEPAGE
  3
ANSI_1252
  9
$LASTSAVEDBY
  1
ezdxf
  9
$REQUIREDVERSIONS
160
0
  9
$INSBASE
 10
0.0
 20
0.0
 30
0.0
  9
$EXTMIN
 10
1e+20
 20
1e+20
 30
1e+20
  9
$EXTMAX
 10
-1e+20
 20
-1e+20
 30
-1e+20
  9
$LIMMIN
 10
0.0
 20
0.0
  9
$LIMMAX
 10
420.0
 20
297.0
  9
$ORTHOMODE
 70
0
  9
$REGENMODE
 70
1
  9
$FILLMODE
 70
1
  9
$QTEXTMODE
 70
0
  9
$MIRRTEXT
 70
1
  9
$LTSCALE
 40
1.0
  9
$ATTMODE
 70
1
  9
$TEXTSIZE
 40
2.5
  9
$TRACEWID
 40
1.0
  9
$TEXTSTYLE
  7
OpenSans
  9
$CLAYER
  8
0
  9
$CELTYPE
  6
ByLayer
  9
$CECOLOR
 62
256
  9
$CELTSCALE
 40
1.0
  9
$DISPSILH
 70
0
  9
$DIMSCALE
 40
1.0
  9
$DIMASZ
 40
0.175
  9
$DIMEXO
 40
0.125
  9
$DIMDLI
 40
3.75
  9
$DIMRND
 40
0.0
  9
$DIMDLE
 40
0.0
  9
$DIMEXE
 40
0.375
  9
$DIMTP
 40
0.0
  9
$DIMTM
 40
0.0
  9
$DIMTXT
 40
0.25
  9
$DIMCEN
 40
2.5
  9
$DIMTSZ
 40
0.0
  9
$DIMTOL
 70
0
  9
$DIMLIM
 70
0
  9
$DIMTIH
 70
0
  9
$DIMTOH
 70
0
  9
$DIMSE1
 70
0
  9
$DIMSE2
 70
0
  9
$DIMTAD
 70
1
  9
$DIMZIN
 70
12
  9
$DIMBLK
  1
ARCHTICK
  9
$DIMASO
 70
1
  9
$DIMSHO
 70
1
  9
$DIMPOST
  1

  9
$DIMAPOST
  1

  9
$DIMALT
 70
0
  9
$DIMALTD
 70
3
  9
$DIMALTF
 40
0.03937007874
  9
$DIMLFAC
 40
100.0
  9
$DIMTOFL
 70
1
  9
$DIMTVP
 40
0.0
  9
$DIMTIX
 70
0
  9
$DIMSOXD
 70
0
  9
$DIMSAH
 70
0
  9
$DIMBLK1
  1

  9
$DIMBLK2
  1

  9
$DIMSTYLE
  2
EZDXF
  9
$DIMCLRD
 70
0
  9
$DIMCLRE
 70
0
  9
$DIMCLRT
 70
0
  9
$DIMTFAC
 40
0.5
  9
$DIMGAP
 40
0.1
  9
$DIMJUST
 70
0
  9
$DIMSD1
 70
0
  9
$DIMSD2
 70
0
  9
$DIMTOLJ
 70
0
  9
$DIMTZIN
 70
8
  9
$DIMALTZ
 70
0
  9
$DIMALTTZ
 70
0
  9
$DIMUPT
 70
1
  9
$DIMDEC
 70
2
  9
$DIMTDEC
 70
2
  9
$DIMALTU
 70
2
  9
$DIMALTTD
 70
3
  9
$DIMTXSTY
  7
OpenSansCondensed-Light
  9
$DIMAUNIT
 70
0
  9
$DIMADEC
 70
2
  9
$DIMALTRND
 40
0.0
  9
$DIMAZIN
 70
3
  9
$DIMDSEP
 70
46
  9
$DIMATFIT
 70
3
  9
$DIMFRAC
 70
0
  9
$DIMLDRBLK
  1

  9
$DIMLUNIT
 70
2
  9
$DIMLWD
 70
-2
  9
$DIMLWE
 70
-2
  9
$DIMTMOVE
 70
2
  9
$DIMFXL
 40
1.0
  9
$DIMFXLON
 70
0
  9
$DIMJOGANG
 40
0.785398163397
  9
$DIMTFILL
 70
0
  9
$DIMTFILLCLR
 70
0
  9
$DIMARCSYM
 70
0
  9
$DIMLTYPE
  6

  9
$DIMLTEX1
  6

  9
$DIMLTEX2
  6

  9
$DIMTXTDIRECTION
 70
0
  9
$LUNITS
 70
2
  9
$LUPREC
 70
4
  9
$SKETCHINC
 40
1.0
  9
$FILLETRAD
 40
10.0
  9
$AUNITS
 70
0
  9
$AUPREC
 70
2
  9
$MENU
  1
.
  9
$ELEVATION
 40
0.0
  9
$PELEVATION
 40
0.0
  9
$THICKNESS
 40
0.0
  9
$LIMCHECK
 70
0
  9
$CHAMFERA
 40
0.0
  9
$CHAMFERB
 40
0.0
  9
$CHAMFERC
 40
0.0
  9
$CHAMFERD
 40
0.0
  9
$SKPOLY
 70
0
  9
$TDCREATE
 40
2461317.9868171294
  9
$TDUCREATE
 40
2458532.153996898
  9
$TDUPDATE
 40
2461317.9868171294
  9
$TDUUPDATE
 40
2458532.1544311
  9
$TDINDWG
 40
0.0
  9
$TDUSRTIMER
 40
0.0
  9
$USRTIMER
 70
1
  9
$ANGBASE
 50
0.0
  9
$ANGDIR
 70
0
  9
$PDMODE
 70
0
  9
$PDSIZE
 40
0.0
  9
$PLINEWID
 40
0.0
  9
$SPLFRAME
 70
0
  9
$SPLINETYPE
 70
6
  9
$SPLINESEGS
 70
8
  9
$HANDSEED
  5
132
  9
$SURFTAB1
 70
6
  9
$SURFTAB2
 70
6
  9
$SURFTYPE
 70
6
  9
$SURFU
 70
6
  9
$SURFV
 70
6
  9
$UCSBASE
  2

  9
$UCSNAME
  2

  9
$UCSORG
 10
0.0
 20
0.0
 30
0.0
  9
$UCSXDIR
 10
1.0
 20
0.0
 30
0.0
  9
$UCSYDIR
 10
0.0
 20
1.0
 30
0.0
  9
$UCSORTHOREF
  2

  9
$UCSORTHOVIEW
 70
0
  9
$UCSORGTOP
 10
0.0
 20
0.0
 30
0.0
  9
$UCSORGBOTTOM
 10
0.0
 20
0.0
 30
0.0
  9
$UCSORGLEFT
 10
0.0
 20
0.0
 30
0.0
  9
$UCSORGRIGHT
 10
0.0
 20
0.0
 30
0.0
  9
$UCSORGFRONT
 10
0.0
 20
0.0
 30
0.0
  9
$UCSORGBACK
 10
0.0
 20
0.0
 30
0.0
  9
$PUCSBASE
  2

  9
$PUCSNAME
  2

  9
$PUCSORG
 10
0.0
 20
0.0
 30
0.0
  9
$PUCSXDIR
 10
1.0
 20
0.0
 30
0.0
  9
$PUCSYDIR
 10
0.0
 20
1.0
 30
0.0
  9
$PUCSORTHOREF
  2

  9
$PUCSORTHOVIEW
 70
0
  9
$PUCSORGTOP
 10
0.0
 20
0.0
 30
0.0
  9
$PUCSORGBOTTOM
 10
0.0
 20
0.0
 30
0.0
  9
$PUCSORGLEFT
 10
0.0
 20
0.0
 30
0.0
  9
$PUCSORGRIGHT
 10
0.0
 20
0.0
 30
0.0
  9
$PUCSORGFRONT
 10
0.0
 20
0.0
 30
0.0
  9
$PUCSORGBACK
 10
0.0
 20
0.0
 30
0.0
  9
$USERI1
 70
0
  9
$USERI2
 70
0
  9
$USERI3
 70
0
  9
$USERI4
 70
0
  9
$USERI5
 70
0
  9
$USERR1
 40
0.0
  9
$USERR2
 40
0.0
  9
$USERR3
 40
0.0
  9
$USERR4
 40
0.0
  9
$USERR5
 40
0.0
  9
$WORLDVIEW
 70
1
  9
$SHADEDGE
 70
3
  9
$SHADEDIF
 70
70
  9
$TILEMODE
 70
1
  9
$MAXACTVP
 70
64
  9
$PINSBASE
 10
0.0
 20
0.0
 30
0.0
  9
$PLIMCHECK
 70
0
  9
$PEXTMIN
 10
1e+20
 20
1e+20
 30
1e+20
  9
$PEXTMAX
 10
-1e+20
 20
-1e+20
 30
-1e+20
  9
$PLIMMIN
 10
0.0
 20
0.0
  9
$PLIMMAX
 10
420.0
 20
297.0
  9
$UNITMODE
 70
0
  9
$VISRETAIN
 70
1
  9
$PLINEGEN
 70
0
  9
$PSLTSCALE
 70
1
  9
$TREEDEPTH
 70
3020
  9
$CMLSTYLE
  2
Standard
  9
$CMLJUST
 70
0
  9
$CMLSCALE
 40
20.0
  9
$PROXYGRAPHICS
 70
1
  9
$MEASUREMENT
 70
1
  9
$CELWEIGHT
370
-1
  9
$ENDCAPS
280
0
  9
$JOINSTYLE
280
0
  9
$LWDISPLAY
290
0
  9
$INSUNITS
 70
6
  9
$HYPERLINKBASE
  1

  9
$STYLESHEET
  1

  9
$XEDIT
290
1
  9
$CEPSNTYPE
380
0
  9
$PSTYLEMODE
290
1
  9
$FINGERPRINTGUID
  2
{99CD57CC-4D53-44CB-A1CD-9E1DA971866B}
  9
$VERSIONGUID
  2
{49E0E2A1-B401-43E7-AE0B-B8F4C7DBE76F}
  9
$EXTNAMES
290
1
  9
$PSVPSCALE
 40
0.0
  9
$OLESTARTUP
290
0
  9
$SORTENTS
280
127
  9
$INDEXCTL
280
0
  9
$HIDETEXT
280
1
  9
$XCLIPFRAME
280
1
  9
$HALOGAP
280
0
  9
$OBSCOLOR
 70
257
  9
$OBSLTYPE
280
0
  9
$INTERSECTIONDISPLAY
280
0
  9
$INTERSECTIONCOLOR
 70
257
  9
$DIMASSOC
280
2
  9
$PROJECTNAME
  1

  9
$CAMERADISPLAY
290
0
  9
$LENSLENGTH
 40
50.0
  9
$CAMERAHEIGHT
 40
0.0
  9
$STEPSPERSEC
 40
24.0
  9
$STEPSIZE
 40
100.0
  9
$3DDWFPREC
 40
2.0
  9
$PSOLWIDTH
 40
0.005
  9
$PSOLHEIGHT
 40
0.08
  9
$LOFTANG1
 40
1.570796326795
  9
$LOFTANG2
 40
1.570796326795
  9
$LOFTMAG1
 40
0.0
  9
$LOFTMAG2
 40
0.0
  9
$LOFTPARAM
 70
7
  9
$LOFTNORMALS
280
1
  9
$LATITUDE
 40
37.795
  9
$LONGITUDE
 40
-122.394
  9
$NORTHDIRECTION
 40
0.0
  9
$TIMEZONE
 70
-8000
  9
$LIGHTGLYPHDISPLAY
280
1
  9
$TILEMODELIGHTSYNCH
280
1
  9
$CMATERIAL
347
20
  9
$SOLIDHIST
280
0
  9
$SHOWHIST
280
1
  9
$DWFFRAME
280
2
  9
$DGNFRAME
280
2
  9
$REALWORLDSCALE
290
1
  9
$INTERFERECOLOR
 62
256
  9
$CSHADOW
280
0
  9
$SHADOWPLANELOCATION
 40
0.0
  0
ENDSEC
  0
SECTION
  2
CLASSES
  0
CLASS
  1
ACDBDICTIONARYWDFLT
  2
AcDbDictionaryWithDefault
  3
ObjectDBX Classes
 90
0
 91
0
280
0
281
0
  0
CLASS
  1
SUN
  2
AcDbSun
  3
SCENEOE
 90
1153
 91
0
280
0
281
0
  0
CLASS
  1
VISUALSTYLE
  2
AcDbVisualStyle
  3
ObjectDBX Classes
 90
4095
 91
0
280
0
281
0
  0
CLASS
  1
MATERIAL
  2
AcDbMaterial
  3
ObjectDBX Classes
 90
1153
 91
0
280
0
281
0
  0
CLASS
  1
SCALE
  2
AcDbScale
  3
ObjectDBX Classes
 90
1153
 91
0
280
0
281
0
  0
CLASS
  1
TABLESTYLE
  2
AcDbTableStyle
  3
ObjectDBX Classes
 90
4095
 91
0
280
0
281
0
  0
CLASS
  1
MLEADERSTYLE
  2
AcDbMLeaderStyle
  3
ACDB_MLEADERSTYLE_CLASS
 90
4095
 91
0
280
0
281
0
  0
CLASS
  1
DICTIONARYVAR
  2
AcDbDictionaryVar
  3
ObjectDBX Classes
 90
0
 91
0
280
0
281
0
  0
CLASS
  1
CELLSTYLEMAP
  2
AcDbCellStyleMap
  3
ObjectDBX Classes
 90
1152
 91
0
280
0
281
0
  0
CLASS
  1
MENTALRAYRENDERSETTINGS
  2
AcDbMentalRayRenderSettings
  3
SCENEOE
 90
1024
 91
0
280
0
281
0
  0
CLASS
  1
ACDBDETAILVIEWSTYLE
  2
AcDbDetailViewStyle
  3
ObjectDBX Classes
 90
1025
 91
0
280
0
281
0
  0
CLASS
  1
ACDBSECTIONVIEWSTYLE
  2
AcDbSectionViewStyle
  3
ObjectDBX Classes
 90
1025
 91
0
280
0
281
0
  0
CLASS
  1
RASTERVARIABLES
  2
AcDbRasterVariables
  3
ISM
 90
0
 91
0
280
0
281
0
  0
CLASS
  1
LAYOUT
  2
AcDbLayout
  3
ObjectDBX Classes
 90
0
 91
0
280
0
281
0
  0
CLASS
  1
ACDBPLACEHOLDER
  2
AcDbPlaceHolder
  3
ObjectDBX Classes
 90
0
 91
0
280
0
281
0
  0
ENDSEC
  0
SECTION
  2
TABLES
  0
TABLE
  2
VPORT
  5
8
330
0
100
AcDbSymbolTable
 70
1
  0
VPORT
  5
23
330
8
100
AcDbSymbolTableRecord
100
AcDbViewportTableRecord
  2
*Active
 70
0
 10
0.0
 20
0.0
 11
1.0
 21
1.0
 12
0.0
 22
0.0
 13
0.0
 23
0.0
 14
0.5
 24
0.5
 15
0.5
 25
0.5
 16
0.0
 26
0.0
 36
1.0
 17
0.0
 27
0.0
 37
0.0
 40
1000.0
 41
1.34
 42
50.0
 43
0.0
 44
0.0
 50
0.0
 51
0.0
 71
0
 72
1000
 73
1
 74
3
 75
0
 76
0
 77
0
 78
0
281
0
 65
0
146
0.0
  0
ENDTAB
  0
TABLE
  2
LTYPE
  5
2
330
0
100
AcDbSymbolTable
 70
21
  0
LTYPE
  5
24
330
2
100
AcDbSymbolTableRecord
100
AcDbLinetypeTableRecord
  2
ByBlock
 70
0
  3

 72
65
 73
0
 40
0.0
  0
LTYPE
  5
25
330
2
100
AcDbSymbolTableRecord
100
AcDbLinetypeTableRecord
  2
ByLayer
 70
0
  3

 72
65
 73
0
 40
0.0
  0
LTYPE
  5
26
330
2
100
AcDbSymbolTableRecord
100
AcDbLinetypeTableRecord
  2
Continuous
 70
0
  3

 72
65
 73
0
 40
0.0
  0
LTYPE
  5
2F
330
2
100
AcDbSymbolTableRecord
100
AcDbLinetypeTableRecord
  2
CENTER
 70
0
  3
Center ____ _ ____ _ ____ _ ____ _ ____ _ ____
 72
65
 73
4
 40
5.08
 49
3.175
 74
0
 49
-0.635
 74
0
 49
0.635
 74
0
 49
-0.635
 74
0
  0
LTYPE
  5
30
330
2
100
AcDbSymbolTableRecord
100
AcDbLinetypeTableRecord
  2
CENTERX2
 70
0
  3
Center (2x) ________  __  ________  __  ________
 72
65
 73
4
 40
8.89
 49
6.35
 74
0
 49
-0.635
 74
0
 49
1.27
 74
0
 49
-0.635
 74
0
  0
LTYPE
  5
31
330
2
100
AcDbSymbolTableRecord
100
AcDbLinetypeTableRecord
  2
CENTER2
 70
0
  3
Center (.5x) ____ _ ____ _ ____ _ ____ _ ____
 72
65
 73
4
 40
2.54
 49
1.587
 74
0
 49
-0.318
 74
0
 49
0.318
 74
0
 49
-0.318
 74
0
  0
LTYPE
  5
32
330
2
100
AcDbSymbolTableRecord
100
AcDbLinetypeTableRecord
  2
DASHED
 70
0
  3
Dashed __ __ __ __ __ __ __ __ __ __ __ __ __ _
 72
65
 73
2
 40
1.524
 49
1.27
 74
0
 49
-0.254
 74
0
  0
LTYPE
  5
33
330
2
100
AcDbSymbolTableRecord
100
AcDbLinetypeTableRecord
  2
DASHEDX2
 70
0
  3
Dashed (2x) ____  ____  ____  ____  ____  ____
 72
65
 73
2
 40
3.048
 49
2.54
 74
0
 49
-0.508
 74
0
  0
LTYPE
  5
34
330
2
100
AcDbSymbolTableRecord
100
AcDbLinetypeTableRecord
  2
DASHED2
 70
0
  3
Dashed (.5x) _ _ _ _ _ _ _ _ _ _ _ _ _ _
 72
65
 73
2
 40
0.762
 49
0.635
 74
0
 49
-0.127
 74
0
  0
LTYPE
  5
35
330
2
100
AcDbSymbolTableRecord
100
AcDbLinetypeTableRecord
  2
PHANTOM
 70
0
  3
Phantom ______  __  __  ______  __  __  ______
 72
65
 73
6
 40
6.35
 49
3.175
 74
0
 49
-0.635
 74
0
 49
0.635
 74
0
 49
-0.635
 74
0
 49
0.635
 74
0
 49
-0.635
 74
0
  0
LTYPE
  5
36
330
2
100
AcDbSymbolTableRecord
100
AcDbLinetypeTableRecord
  2
PHANTOMX2
 70
0
  3
Phantom (2x)____________    ____    ____    ____________
 72
65
 73
6
 40
10.795
 49
6.35
 74
0
 49
-0.635
 74
0
 49
1.27
 74
0
 49
-0.635
 74
0
 49
1.27
 74
0
 49
-0.635
 74
0
  0
LTYPE
  5
37
330
2
100
AcDbSymbolTableRecord
100
AcDbLinetypeTableRecord
  2
PHANTOM2
 70
0
  3
Phantom (.5x) ___ _ _ ___ _ _ ___ _ _ ___ _ _ ___
 72
65
 73
6
 40
3.175
 49
1.587
 74
0
 49
-0.318
 74
0
 49
0.318
 74
0
 49
-0.318
 74
0
 49
0.318
 74
0
 49
-0.318
 74
0
  0
LTYPE
  5
38
330
2
100
AcDbSymbolTableRecord
100
AcDbLinetypeTableRecord
  2
DASHDOT
 70
0
  3
Dash dot __ . __ . __ . __ . __ . __ . __ . __
 72
65
 73
4
 40
3.556
 49
2.54
 74
0
 49
-0.508
 74
0
 49
0.0
 74
0
 49
-0.508
 74
0
  0
LTYPE
  5
39
330
2
100
AcDbSymbolTableRecord
100
AcDbLinetypeTableRecord
  2
DASHDOTX2
 70
0
  3
Dash dot (2x) ____  .  ____  .  ____  .  ____
 72
65
 73
4
 40
6.096
 49
5.08
 74
0
 49
-0.508
 74
0
 49
0.0
 74
0
 49
-0.508
 74
0
  0
LTYPE
  5
3A
330
2
100
AcDbSymbolTableRecord
100
AcDbLinetypeTableRecord
  2
DASHDOT2
 70
0
  3
Dash dot (.5x) _ . _ . _ . _ . _ . _ . _ . _
 72
65
 73
4
 40
1.778
 49
1.27
 74
0
 49
-0.254
 74
0
 49
0.0
 74
0
 49
-0.254
 74
0
  0
LTYPE
  5
3B
330
2
100
AcDbSymbolTableRecord
100
AcDbLinetypeTableRecord
  2
DOT
 70
0
  3
Dot .  .  .  .  .  .  .  .  .  .  .  .  .  .  .  .
 72
65
 73
2
 40
0.508
 49
0.0
 74
0
 49
-0.508
 74
0
  0
LTYPE
  5
3C
330
2
100
AcDbSymbolTableRecord
100
AcDbLinetypeTableRecord
  2
DOTX2
 70
0
  3
Dot (2x) .    .    .    .    .    .    .    . 
 72
65
 73
2
 40
1.016
 49
0.0
 74
0
 49
-1.016
 74
0
  0
LTYPE
  5
3D
330
2
100
AcDbSymbolTableRecord
100
AcDbLinetypeTableRecord
  2
DOT2
 70
0
  3
Dot (.5) . . . . . . . . . . . . . . . . . . . 
 72
65
 73
2
 40
0.254
 49
0.0
 74
0
 49
-0.254
 74
0
  0
LTYPE
  5
3E
330
2
100
AcDbSymbolTableRecord
100
AcDbLinetypeTableRecord
  2
DIVIDE
 70
0
  3
Divide __ . . __ . . __ . . __ . . __ . . __
 72
65
 73
6
 40
4.064
 49
2.54
 74
0
 49
-0.508
 74
0
 49
0.0
 74
0
 49
-0.508
 74
0
 49
0.0
 74
0
 49
-0.508
 74
0
  0
LTYPE
  5
3F
330
2
100
AcDbSymbolTableRecord
100
AcDbLinetypeTableRecord
  2
DIVIDEX2
 70
0
  3
Divide (2x) ____  . .  ____  . .  ____  . .  ____
 72
65
 73
6
 40
6.604
 49
5.08
 74
0
 49
-0.508
 74
0
 49
0.0
 74
0
 49
-0.508
 74
0
 49
0.0
 74
0
 49
-0.508
 74
0
  0
LTYPE
  5
40
330
2
100
AcDbSymbolTableRecord
100
AcDbLinetypeTableRecord
  2
DIVIDE2
 70
0
  3
Divide(.5x) _ . _ . _ . _ . _ . _ . _ . _
 72
65
 73
6
 40
2.032
 49
1.27
 74
0
 49
-0.254
 74
0
 49
0.0
 74
0
 49
-0.254
 74
0
 49
0.0
 74
0
 49
-0.254
 74
0
  0
ENDTAB
  0
TABLE
  2
LAYER
  5
1
330
0
100
AcDbSymbolTable
 70
5
  0
LAYER
  5
27
330
1
100
AcDbSymbolTableRecord
100
AcDbLayerTableRecord
  2
0
 70
0
 62
7
  6
Continuous
370
-3
390
13
347
21
  0
LAYER
  5
28
330
1
100
AcDbSymbolTableRecord
100
AcDbLayerTableRecord
  2
Defpoints
 70
0
 62
7
  6
Continuous
290
0
370
-3
390
13
347
21
  0
LAYER
  5
8A
330
1
100
AcDbSymbolTableRecord
100
AcDbLayerTableRecord
  2
RED_PLOTS
 70
0
 62
1
  6
Continuous
370
-3
390
13
347
21
  0
LAYER
  5
8B
330
1
100
AcDbSymbolTableRecord
100
AcDbLayerTableRecord
  2
RED_PLOTS_APPROX
 70
0
 62
1
  6
Continuous
370
-3
390
13
347
21
  0
LAYER
  5
8C
330
1
100
AcDbSymbolTableRecord
100
AcDbLayerTableRecord
  2
PLOT_NO
 70
0
 62
7
  6
Continuous
370
-3
390
13
347
21
  0
ENDTAB
  0
TABLE
  2
STYLE
  5
5
330
0
100
AcDbSymbolTable
 70
26
  0
STYLE
  5
29
330
5
100
AcDbSymbolTableRecord
100
AcDbTextStyleTableRecord
  2
Standard
 70
0
 40
0.0
 41
1.0
 50
0.0
 71
0
 42
2.5
  3
txt
  4

  0
STYLE
  5
41
330
5
100
AcDbSymbolTableRecord
100
AcDbTextStyleTableRecord
  2
OpenSans-Light
 70
0
 40
0.0
 41
1.0
 50
0.0
 71
0
 42
2.5
  3
OpenSans-Light.ttf
  4

  0
STYLE
  5
42
330
5
100
AcDbSymbolTableRecord
100
AcDbTextStyleTableRecord
  2
OpenSans-Light-Italic
 70
0
 40
0.0
 41
1.0
 50
0.0
 71
0
 42
2.5
  3
OpenSans-LightItalic.ttf
  4

  0
STYLE
  5
43
330
5
100
AcDbSymbolTableRecord
100
AcDbTextStyleTableRecord
  2
OpenSans
 70
0
 40
0.0
 41
1.0
 50
0.0
 71
0
 42
2.5
  3
OpenSans-Regular.ttf
  4

  0
STYLE
  5
44
330
5
100
AcDbSymbolTableRecord
100
AcDbTextStyleTableRecord
  2
OpenSans-Italic
 70
0
 40
0.0
 41
1.0
 50
0.0
 71
0
 42
2.5
  3
OpenSans-Italic.ttf
  4

  0
STYLE
  5
45
330
5
100
AcDbSymbolTableRecord
100
AcDbTextStyleTableRecord
  2
OpenSans-SemiBold
 70
0
 40
0.0
 41
1.0
 50
0.0
 71
0
 42
2.5
  3
OpenSans-SemiBold.ttf
  4

  0
STYLE
  5
46
330
5
100
AcDbSymbolTableRecord
100
AcDbTextStyleTableRecord
  2
OpenSans-SemiBoldItalic
 70
0
 40
0.0
 41
1.0
 50
0.0
 71
0
 42
2.5
  3
OpenSans-SemiBoldItalic.ttf
  4

  0
STYLE
  5
47
330
5
100
AcDbSymbolTableRecord
100
AcDbTextStyleTableRecord
  2
OpenSans-Bold
 70
0
 40
0.0
 41
1.0
 50
0.0
 71
0
 42
2.5
  3
OpenSans-Bold.ttf
  4

  0
STYLE
  5
48
330
5
100
AcDbSymbolTableRecord
100
AcDbTextStyleTableRecord
  2
OpenSans-BoldItalic
 70
0
 40
0.0
 41
1.0
 50
0.0
 71
0
 42
2.5
  3
OpenSans-BoldItalic.ttf
  4

  0
STYLE
  5
49
330
5
100
AcDbSymbolTableRecord
100
AcDbTextStyleTableRecord
  2
OpenSans-ExtraBold
 70
0
 40
0.0
 41
1.0
 50
0.0
 71
0
 42
2.5
  3
OpenSans-ExtraBold.ttf
  4

  0
STYLE
  5
4A
330
5
100
AcDbSymbolTableRecord
100
AcDbTextStyleTableRecord
  2
OpenSans-ExtraBoldItalic
 70
0
 40
0.0
 41
1.0
 50
0.0
 71
0
 42
2.5
  3
OpenSans-ExtraBoldItalic.ttf
  4

  0
STYLE
  5
4B
330
5
100
AcDbSymbolTableRecord
100
AcDbTextStyleTableRecord
  2
OpenSansCondensed-Bold
 70
0
 40
0.0
 41
1.0
 50
0.0
 71
0
 42
2.5
  3
OpenSansCondensed-Bold.ttf
  4

  0
STYLE
  5
4C
330
5
100
AcDbSymbolTableRecord
100
AcDbTextStyleTableRecord
  2
OpenSansCondensed-Light
 70
0
 40
0.0
 41
1.0
 50
0.0
 71
0
 42
2.5
  3
OpenSansCondensed-Light.ttf
  4

  0
STYLE
  5
4D
330
5
100
AcDbSymbolTableRecord
100
AcDbTextStyleTableRecord
  2
OpenSansCondensed-Italic
 70
0
 40
0.0
 41
1.0
 50
0.0
 71
0
 42
2.5
  3
OpenSansCondensed-LightItalic.ttf
  4

  0
STYLE
  5
4E
330
5
100
AcDbSymbolTableRecord
100
AcDbTextStyleTableRecord
  2
LiberationSans
 70
0
 40
0.0
 41
1.0
 50
0.0
 71
0
 42
2.5
  3
LiberationSans-Regular.ttf
  4

  0
STYLE
  5
4F
330
5
100
AcDbSymbolTableRecord
100
AcDbTextStyleTableRecord
  2
LiberationSans-Bold
 70
0
 40
0.0
 41
1.0
 50
0.0
 71
0
 42
2.5
  3
LiberationSans-Bold.ttf
  4

  0
STYLE
  5
50
330
5
100
AcDbSymbolTableRecord
100
AcDbTextStyleTableRecord
  2
LiberationSans-BoldItalic
 70
0
 40
0.0
 41
1.0
 50
0.0
 71
0
 42
2.5
  3
LiberationSans-BoldItalic.ttf
  4

  0
STYLE
  5
51
330
5
100
AcDbSymbolTableRecord
100
AcDbTextStyleTableRecord
  2
LiberationSans-Italic
 70
0
 40
0.0
 41
1.0
 50
0.0
 71
0
 42
2.5
  3
LiberationSans-Italic.ttf
  4

  0
STYLE
  5
52
330
5
100
AcDbSymbolTableRecord
100
AcDbTextStyleTableRecord
  2
LiberationSerif
 70
0
 40
0.0
 41
1.0
 50
0.0
 71
0
 42
2.5
  3
LiberationSerif-Regular.ttf
  4

  0
STYLE
  5
53
330
5
100
AcDbSymbolTableRecord
100
AcDbTextStyleTableRecord
  2
LiberationSerif-Bold
 70
0
 40
0.0
 41
1.0
 50
0.0
 71
0
 42
2.5
  3
LiberationSerif-Bold.ttf
  4

  0
STYLE
  5
54
330
5
100
AcDbSymbolTableRecord
100
AcDbTextStyleTableRecord
  2
LiberationSerif-BoldItalic
 70
0
 40
0.0
 41
1.0
 50
0.0
 71
0
 42
2.5
  3
LiberationSerif-BoldItalic.ttf
  4

  0
STYLE
  5
55
330
5
100
AcDbSymbolTableRecord
100
AcDbTextStyleTableRecord
  2
LiberationSerif-Italic
 70
0
 40
0.0
 41
1.0
 50
0.0
 71
0
 42
2.5
  3
LiberationSerif-Italic.ttf
  4

  0
STYLE
  5
56
330
5
100
AcDbSymbolTableRecord
100
AcDbTextStyleTableRecord
  2
LiberationMono
 70
0
 40
0.0
 41
1.0
 50
0.0
 71
0
 42
2.5
  3
LiberationMono-Regular.ttf
  4

  0
STYLE
  5
57
330
5
100
AcDbSymbolTableRecord
100
AcDbTextStyleTableRecord
  2
LiberationMono-Bold
 70
0
 40
0.0
 41
1.0
 50
0.0
 71
0
 42
2.5
  3
LiberationMono-Bold.ttf
  4

  0
STYLE
  5
58
330
5
100
AcDbSymbolTableRecord
100
AcDbTextStyleTableRecord
  2
LiberationMono-BoldItalic
 70
0
 40
0.0
 41
1.0
 50
0.0
 71
0
 42
2.5
  3
LiberationMono-BoldItalic.ttf
  4

  0
STYLE
  5
59
330
5
100
AcDbSymbolTableRecord
100
AcDbTextStyleTableRecord
  2
LiberationMono-Italic
 70
0
 40
0.0
 41
1.0
 50
0.0
 71
0
 42
2.5
  3
LiberationMono-Italic.ttf
  4

  0
ENDTAB
  0
TABLE
  2
VIEW
  5
7
330
0
100
AcDbSymbolTable
 70
0
  0
ENDTAB
  0
TABLE
  2
UCS
  5
6
330
0
100
AcDbSymbolTable
 70
0
  0
ENDTAB
  0
TABLE
  2
APPID
  5
3
330
0
100
AcDbSymbolTable
 70
3
  0
APPID
  5
2A
330
3
100
AcDbSymbolTableRecord
100
AcDbRegAppTableRecord
  2
ACAD
 70
0
  0
APPID
  5
12F
330
3
100
AcDbSymbolTableRecord
100
AcDbRegAppTableRecord
  2
HATCHBACKGROUNDCOLOR
 70
0
  0
APPID
  5
130
330
3
100
AcDbSymbolTableRecord
100
AcDbRegAppTableRecord
  2
EZDXF
 70
0
  0
ENDTAB
  0
TABLE
  2
DIMSTYLE
  5
4
330
0
100
AcDbSymbolTable
 70
12
100
AcDbDimStyleTable
  0
DIMSTYLE
105
2B
330
4
100
AcDbSymbolTableRecord
100
AcDbDimStyleTableRecord
  2
Standard
 70
0
 40
1.0
 41
2.5
 42
0.625
 43
3.75
 44
1.25
 45
0.0
 46
0.0
 47
0.0
 48
0.0
 49
2.5
140
2.5
141
2.5
142
0.0
143
0.03937007874
144
1.0
145
0.0
146
1.0
147
0.625
148
0.0
 69
0
 70
0
 71
0
 72
0
 73
0
 74
0
 75
0
 76
0
 77
1
 78
8
 79
3
170
0
171
3
172
1
173
0
174
0
175
0
176
0
177
0
178
0
179
2
271
2
272
2
273
2
274
3
275
0
276
0
277
2
278
44
279
0
280
0
281
0
282
0
283
0
284
8
285
0
286
0
288
0
289
3
290
0
371
-2
372
-2
  0
DIMSTYLE
105
73
330
4
100
AcDbSymbolTableRecord
100
AcDbDimStyleTableRecord
  2
EZDXF
 70
0
 40
1.0
 41
0.175
 42
0.125
 43
3.75
 44
0.375
 45
0.0
 46
0.0
 47
0.0
 48
0.0
 49
2.5
140
0.25
141
2.5
142
0.0
143
0.03937007874
144
100.0
145
0.0
146
0.5
147
0.1
148
0.0
 69
0
 70
0
 71
0
 72
0
 73
0
 74
0
 75
0
 76
0
 77
1
 78
12
 79
3
170
0
171
3
172
1
173
0
174
0
175
0
176
0
177
0
178
0
179
2
271
2
272
2
273
2
274
3
275
0
276
0
277
2
278
46
279
2
280
0
281
0
282
0
283
0
284
8
285
0
286
0
288
1
289
3
290
0
340
4C
342
74
371
-2
372
-2
  0
DIMSTYLE
105
7C
330
4
100
AcDbSymbolTableRecord
100
AcDbDimStyleTableRecord
  2
EZ_M_100_H25_CM
 70
0
 40
1.0
 41
0.25
 42
0.125
 43
3.75
 44
0.375
 45
0.0
 46
0.0
 47
0.0
 48
0.0
 49
2.5
140
0.25
141
2.5
142
0.125
143
0.03937007874
144
100.0
145
0.0
146
0.5
147
0.1
148
0.0
 69
0
 70
0
 71
0
 72
0
 73
0
 74
0
 75
0
 76
0
 77
1
 78
12
 79
3
170
0
171
3
172
1
173
0
174
0
175
0
176
0
177
0
178
0
179
2
271
2
272
2
273
2
274
3
275
0
276
0
277
2
278
46
279
2
280
0
281
0
282
0
283
0
284
8
285
0
286
0
288
1
289
3
290
0
340
4C
371
-2
372
-2
  0
DIMSTYLE
105
7D
330
4
100
AcDbSymbolTableRecord
100
AcDbDimStyleTableRecord
  2
EZ_M_50_H25_CM
 70
0
 40
1.0
 41
0.125
 42
0.0625
 43
3.75
 44
0.1875
 45
0.0
 46
0.0
 47
0.0
 48
0.0
 49
2.5
140
0.125
141
2.5
142
0.0625
143
0.03937007874
144
100.0
145
0.0
146
0.5
147
0.05
148
0.0
 69
0
 70
0
 71
0
 72
0
 73
0
 74
0
 75
0
 76
0
 77
1
 78
12
 79
3
170
0
171
3
172
1
173
0
174
0
175
0
176
0
177
0
178
0
179
2
271
2
272
2
273
2
274
3
275
0
276
0
277
2
278
46
279
2
280
0
281
0
282
0
283
0
284
8
285
0
286
0
288
1
289
3
290
0
340
4C
371
-2
372
-2
  0
DIMSTYLE
105
7E
330
4
100
AcDbSymbolTableRecord
100
AcDbDimStyleTableRecord
  2
EZ_M_25_H25_CM
 70
0
 40
1.0
 41
0.0625
 42
0.03125
 43
3.75
 44
0.09375
 45
0.0
 46
0.0
 47
0.0
 48
0.0
 49
2.5
140
0.0625
141
2.5
142
0.03125
143
0.03937007874
144
100.0
145
0.0
146
0.5
147
0.025
148
0.0
 69
0
 70
0
 71
0
 72
0
 73
0
 74
0
 75
0
 76
0
 77
1
 78
12
 79
3
170
0
171
3
172
1
173
0
174
0
175
0
176
0
177
0
178
0
179
2
271
2
272
2
273
2
274
3
275
0
276
0
277
2
278
46
279
2
280
0
281
0
282
0
283
0
284
8
285
0
286
0
288
1
289
3
290
0
340
4C
371
-2
372
-2
  0
DIMSTYLE
105
7F
330
4
100
AcDbSymbolTableRecord
100
AcDbDimStyleTableRecord
  2
EZ_M_20_H25_CM
 70
0
 40
1.0
 41
0.05
 42
0.025
 43
3.75
 44
0.07500000000000001
 45
0.0
 46
0.0
 47
0.0
 48
0.0
 49
2.5
140
0.05
141
2.5
142
0.025
143
0.03937007874
144
100.0
145
0.0
146
0.5
147
0.020000000000000004
148
0.0
 69
0
 70
0
 71
0
 72
0
 73
0
 74
0
 75
0
 76
0
 77
1
 78
12
 79
3
170
0
171
3
172
1
173
0
174
0
175
0
176
0
177
0
178
0
179
2
271
2
272
2
273
2
274
3
275
0
276
0
277
2
278
46
279
2
280
0
281
0
282
0
283
0
284
8
285
0
286
0
288
1
289
3
290
0
340
4C
371
-2
372
-2
  0
DIMSTYLE
105
80
330
4
100
AcDbSymbolTableRecord
100
AcDbDimStyleTableRecord
  2
EZ_M_10_H25_CM
 70
0
 40
1.0
 41
0.025
 42
0.0125
 43
3.75
 44
0.037500000000000006
 45
0.0
 46
0.0
 47
0.0
 48
0.0
 49
2.5
140
0.025
141
2.5
142
0.0125
143
0.03937007874
144
100.0
145
0.0
146
0.5
147
0.010000000000000002
148
0.0
 69
0
 70
0
 71
0
 72
0
 73
0
 74
0
 75
0
 76
0
 77
1
 78
12
 79
3
170
0
171
3
172
1
173
0
174
0
175
0
176
0
177
0
178
0
179
2
271
2
272
2
273
2
274
3
275
0
276
0
277
2
278
46
279
2
280
0
281
0
282
0
283
0
284
8
285
0
286
0
288
1
289
3
290
0
340
4C
371
-2
372
-2
  0
DIMSTYLE
105
81
330
4
100
AcDbSymbolTableRecord
100
AcDbDimStyleTableRecord
  2
EZ_M_5_H25_CM
 70
0
 40
1.0
 41
0.0125
 42
0.00625
 43
3.75
 44
0.018750000000000003
 45
0.0
 46
0.0
 47
0.0
 48
0.0
 49
2.5
140
0.0125
141
2.5
142
0.00625
143
0.03937007874
144
100.0
145
0.0
146
0.5
147
0.005000000000000001
148
0.0
 69
0
 70
0
 71
0
 72
0
 73
0
 74
0
 75
0
 76
0
 77
1
 78
12
 79
3
170
0
171
3
172
1
173
0
174
0
175
0
176
0
177
0
178
0
179
2
271
2
272
2
273
2
274
3
275
0
276
0
277
2
278
46
279
2
280
0
281
0
282
0
283
0
284
8
285
0
286
0
288
1
289
3
290
0
340
4C
371
-2
372
-2
  0
DIMSTYLE
105
82
330
4
100
AcDbSymbolTableRecord
100
AcDbDimStyleTableRecord
  2
EZ_M_1_H25_CM
 70
0
 40
1.0
 41
0.0025
 42
0.00125
 43
3.75
 44
0.00375
 45
0.0
 46
0.0
 47
0.0
 48
0.0
 49
2.5
140
0.0025
141
2.5
142
0.00125
143
0.03937007874
144
100.0
145
0.0
146
0.5
147
0.001
148
0.0
 69
0
 70
0
 71
0
 72
0
 73
0
 74
0
 75
0
 76
0
 77
1
 78
12
 79
3
170
0
171
3
172
1
173
0
174
0
175
0
176
0
177
0
178
0
179
2
271
2
272
2
273
2
274
3
275
0
276
0
277
2
278
46
279
2
280
0
281
0
282
0
283
0
284
8
285
0
286
0
288
1
289
3
290
0
340
4C
371
-2
372
-2
  0
DIMSTYLE
105
83
330
4
100
AcDbSymbolTableRecord
100
AcDbDimStyleTableRecord
  2
EZ_RADIUS
 70
0
 40
1.0
 41
0.25
 42
0.125
 43
3.75
 44
0.375
 45
0.0
 46
0.0
 47
0.0
 48
0.0
 49
2.5
140
0.25
141
0.0
142
0.0
143
0.03937007874
144
100.0
145
0.0
146
0.5
147
0.1
148
0.0
 69
0
 70
0
 71
0
 72
0
 73
0
 74
0
 75
0
 76
0
 77
1
 78
12
 79
3
170
0
171
3
172
0
173
0
174
0
175
0
176
0
177
0
178
0
179
2
271
2
272
2
273
2
274
3
275
0
276
0
277
2
278
46
279
1
280
0
281
0
282
0
283
0
284
8
285
0
286
0
288
1
289
3
290
0
340
4C
342
84
371
-2
372
-2
  0
DIMSTYLE
105
88
330
4
100
AcDbSymbolTableRecord
100
AcDbDimStyleTableRecord
  2
EZ_RADIUS_INSIDE
 70
0
 40
1.0
 41
0.25
 42
0.125
 43
3.75
 44
0.375
 45
0.0
 46
0.0
 47
0.0
 48
0.0
 49
2.5
140
0.25
141
0.0
142
0.0
143
0.03937007874
144
100.0
145
0.0
146
0.5
147
0.1
148
0.0
 69
0
 70
0
 71
0
 72
0
 73
0
 74
0
 75
0
 76
0
 77
0
 78
12
 79
3
170
0
171
3
172
0
173
0
174
1
175
0
176
0
177
0
178
0
179
2
271
2
272
2
273
2
274
3
275
0
276
0
277
2
278
46
279
0
280
0
281
0
282
0
283
0
284
8
285
0
286
0
288
1
289
0
290
0
340
4C
342
84
371
-2
372
-2
  0
DIMSTYLE
105
89
330
4
100
AcDbSymbolTableRecord
100
AcDbDimStyleTableRecord
  2
EZ_CURVED
 70
0
 40
1.0
 41
0.25
 42
0.125
 43
3.75
 44
0.375
 45
0.0
 46
0.0
 47
0.0
 48
0.0
 49
2.5
140
0.25
141
2.5
142
0.0
143
0.03937007874
144
100.0
145
0.0
146
0.5
147
0.1
148
0.0
 69
0
 70
0
 71
0
 72
0
 73
0
 74
0
 75
0
 76
0
 77
1
 78
12
 79
2
 90
2
170
0
171
3
172
1
173
0
174
0
175
0
176
0
177
0
178
0
179
2
271
2
272
2
273
2
274
3
275
0
276
0
277
2
278
46
279
2
280
0
281
0
282
0
283
0
284
8
285
0
286
0
288
1
289
3
290
0
340
4C
371
-2
372
-2
  0
ENDTAB
  0
TABLE
  2
BLOCK_RECORD
  5
9
330
0
100
AcDbSymbolTable
 70
5
  0
BLOCK_RECORD
  5
17
330
9
100
AcDbSymbolTableRecord
100
AcDbBlockTableRecord
  2
*Model_Space
340
1A
 70
0
280
1
281
0
  0
BLOCK_RECORD
  5
1B
330
9
100
AcDbSymbolTableRecord
100
AcDbBlockTableRecord
  2
*Paper_Space
340
1E
 70
0
280
1
281
0
  0
BLOCK_RECORD
  5
74
330
9
100
AcDbSymbolTableRecord
100
AcDbBlockTableRecord
  2
_ARCHTICK
340
0
 70
0
280
1
281
0
  0
BLOCK_RECORD
  5
78
330
9
100
AcDbSymbolTableRecord
100
AcDbBlockTableRecord
  2
_CLOSEDFILLED
340
0
 70
0
280
1
281
0
  0
BLOCK_RECORD
  5
84
330
9
100
AcDbSymbolTableRecord
100
AcDbBlockTableRecord
  2
_CLOSEDBLANK
340
0
 70
0
280
1
281
0
  0
ENDTAB
  0
ENDSEC
  0
SECTION
  2
BLOCKS
  0
BLOCK
  5
18
330
17
100
AcDbEntity
  8
0
100
AcDbBlockBegin
  2
*Model_Space
 70
0
 10
0.0
 20
0.0
 30
0.0
  3
*Model_Space
  1

  0
ENDBLK
  5
19
330
17
100
AcDbEntity
  8
0
100
AcDbBlockEnd
  0
BLOCK
  5
1C
330
1B
100
AcDbEntity
  8
0
100
AcDbBlockBegin
  2
*Paper_Space
 70
0
 10
0.0
 20
0.0
 30
0.0
  3
*Paper_Space
  1

  0
ENDBLK
  5
1D
330
1B
100
AcDbEntity
  8
0
100
AcDbBlockEnd
  0
BLOCK
  5
75
330
74
100
AcDbEntity
  8
0
100
AcDbBlockBegin
  2
_ARCHTICK
 70
0
 10
0.0
 20
0.0
 30
0.0
  3
_ARCHTICK
  1

  0
LWPOLYLINE
  5
77
330
74
100
AcDbEntity
  8
0
  6
BYBLOCK
 62
0
100
AcDbPolyline
 90
2
 70
0
 43
0.15
 10
-0.5
 20
-0.5
 10
0.5
 20
0.5
  0
ENDBLK
  5
76
330
74
100
AcDbEntity
  8
0
100
AcDbBlockEnd
  0
BLOCK
  5
79
330
78
100
AcDbEntity
  8
0
100
AcDbBlockBegin
  2
_CLOSEDFILLED
 70
0
 10
0.0
 20
0.0
 30
0.0
  3
_CLOSEDFILLED
  1

  0
SOLID
  5
7B
330
78
100
AcDbEntity
  8
0
  6
BYBLOCK
 62
0
100
AcDbTrace
 10
-1.0
 20
0.16439898372402537
 30
0.0
 11
0.0
 21
0.0
 31
0.0
 12
-1.0
 22
-0.16439898372402537
 32
0.0
 13
-1.0
 23
-0.16439898372402537
 33
0.0
  0
ENDBLK
  5
7A
330
78
100
AcDbEntity
  8
0
100
AcDbBlockEnd
  0
BLOCK
  5
85
330
84
100
AcDbEntity
  8
0
100
AcDbBlockBegin
  2
_CLOSEDBLANK
 70
0
 10
0.0
 20
0.0
 30
0.0
  3
_CLOSEDBLANK
  1

  0
LWPOLYLINE
  5
87
330
84
100
AcDbEntity
  8
0
  6
BYBLOCK
 62
0
100
AcDbPolyline
 90
3
 70
1
 10
-1.0
 20
0.16439898372402537
 10
0.0
 20
0.0
 10
-1.0
 20
-0.16439898372402537
  0
ENDBLK
  5
86
330
84
100
AcDbEntity
  8
0
100
AcDbBlockEnd
  0
ENDSEC
  0
SECTION
  2
ENTITIES
  0
HATCH
  5
8D
330
17
100
AcDbEntity
  8
RED_PLOTS
 62
1
100
AcDbHatch
 10
0.0
 20
0.0
 30
0.0
210
0.0
220
0.0
230
1.0
  2
SOLID
 70
1
 71
0
 91
1
 92
3
 72
0
 73
1
 93
12
 10
680979.5577181207
 20
829375.4395973154
 10
680974.7999999999
 20
829374.6
 10
680970.0
 20
829374.2999999999
 10
680964.9
 20
829374.2999999999
 10
680960.1
 20
829374.6
 10
680956.5057142858
 20
829375.2342857142
 10
680961.5836363636
 20
829405.7018181818
 10
680963.4
 20
829405.5
 10
680966.1
 20
829405.2
 10
680968.7999999999
 20
829405.2
 10
680971.7999999999
 20
829405.5
 10
680974.2057692307
 20
829405.7673076922
 97
0
 75
1
 76
1
 98
0
  0
LWPOLYLINE
  5
8E
330
17
100
AcDbEntity
  8
RED_PLOTS
 62
1
100
AcDbPolyline
 90
12
 70
1
 10
680979.5577181207
 20
829375.4395973154
 10
680974.7999999999
 20
829374.6
 10
680970.0
 20
829374.2999999999
 10
680964.9
 20
829374.2999999999
 10
680960.1
 20
829374.6
 10
680956.5057142858
 20
829375.2342857142
 10
680961.5836363636
 20
829405.7018181818
 10
680963.4
 20
829405.5
 10
680966.1
 20
829405.2
 10
680968.7999999999
 20
829405.2
 10
680971.7999999999
 20
829405.5
 10
680974.2057692307
 20
829405.7673076922
  0
TEXT
  5
8F
330
17
100
AcDbEntity
  8
PLOT_NO
 62
7
100
AcDbText
 10
680967.9689415254
 20
829388.5032779316
 30
0.0
 40
5.0
  1
72
 72
1
 11
680967.9689415254
 21
829388.5032779316
 31
0.0
100
AcDbText
 73
2
  0
HATCH
  5
90
330
17
100
AcDbEntity
  8
RED_PLOTS_APPROX
 62
1
100
AcDbHatch
 10
0.0
 20
0.0
 30
0.0
210
0.0
220
0.0
230
1.0
  2
SOLID
 70
1
 71
0
 91
1
 92
3
 72
0
 73
1
 93
13
 10
681036.8279521015
 20
829534.6009496291
 10
681040.7999999999
 20
829533.8999999999
 10
681045.6
 20
829532.7
 10
681050.4
 20
829530.8999999999
 10
681055.2
 20
829529.1
 10
681059.7
 20
829526.7
 10
681045.0
 20
829499.7
 10
681042.2999999999
 20
829500.8999999999
 10
681039.9
 20
829501.7999999999
 10
681037.2
 20
829502.7
 10
681034.5
 20
829503.6
 10
681031.5
 20
829503.8999999999
 10
681030.8271348773
 20
829503.9747627913
 97
0
 75
1
 76
1
 98
0
  0
LWPOLYLINE
  5
91
330
17
100
AcDbEntity
  8
RED_PLOTS_APPROX
 62
1
100
AcDbPolyline
 90
13
 70
1
 10
681036.8279521015
 20
829534.6009496291
 10
681040.7999999999
 20
829533.8999999999
 10
681045.6
 20
829532.7
 10
681050.4
 20
829530.8999999999
 10
681055.2
 20
829529.1
 10
681059.7
 20
829526.7
 10
681045.0
 20
829499.7
 10
681042.2999999999
 20
829500.8999999999
 10
681039.9
 20
829501.7999999999
 10
681037.2
 20
829502.7
 10
681034.5
 20
829503.6
 10
681031.5
 20
829503.8999999999
 10
681030.8271348773
 20
829503.9747627913
  0
TEXT
  5
92
330
17
100
AcDbEntity
  8
PLOT_NO
 62
7
100
AcDbText
 10
681043.669392862
 20
829517.9606206226
 30
0.0
 40
5.0
  1
83
 72
1
 11
681043.669392862
 21
829517.9606206226
 31
0.0
100
AcDbText
 73
2
  0
HATCH
  5
93
330
17
100
AcDbEntity
  8
RED_PLOTS_APPROX
 62
1
100
AcDbHatch
 10
0.0
 20
0.0
 30
0.0
210
0.0
220
0.0
230
1.0
  2
SOLID
 70
1
 71
0
 91
1
 92
3
 72
0
 73
1
 93
4
 10
681124.7841479754
 20
829253.2545515648
 10
681139.1853537799
 20
829263.356889965
 10
681159.5093197752
 20
829232.4983162321
 10
681147.085140844
 20
829223.717317589
 97
0
 75
1
 76
1
 98
0
  0
LWPOLYLINE
  5
94
330
17
100
AcDbEntity
  8
RED_PLOTS_APPROX
 62
1
100
AcDbPolyline
 90
4
 70
1
 10
681124.7841479754
 20
829253.2545515648
 10
681139.1853537799
 20
829263.356889965
 10
681159.5093197752
 20
829232.4983162321
 10
681147.085140844
 20
829223.717317589
  0
TEXT
  5
95
330
17
100
AcDbEntity
  8
PLOT_NO
 62
7
100
AcDbText
 10
681142.3818558562
 20
829243.5702499391
 30
0.0
 40
5.0
  1
123
 72
1
 11
681142.3818558562
 21
829243.5702499391
 31
0.0
100
AcDbText
 73
2
  0
HATCH
  5
96
330
17
100
AcDbEntity
  8
RED_PLOTS_APPROX
 62
1
100
AcDbHatch
 10
0.0
 20
0.0
 30
0.0
210
0.0
220
0.0
230
1.0
  2
SOLID
 70
1
 71
0
 91
1
 92
3
 72
0
 73
1
 93
5
 10
681572.6909839347
 20
829286.3552249395
 10
681579.7343165899
 20
829276.2642964239
 10
681556.9647248051
 20
829254.818664531
 10
681548.477880733
 20
829266.954058391
 10
681547.9837137022
 20
829267.6606710613
 97
0
 75
1
 76
1
 98
0
  0
LWPOLYLINE
  5
97
330
17
100
AcDbEntity
  8
RED_PLOTS_APPROX
 62
1
100
AcDbPolyline
 90
5
 70
1
 10
681572.6909839347
 20
829286.3552249395
 10
681579.7343165899
 20
829276.2642964239
 10
681556.9647248051
 20
829254.818664531
 10
681548.477880733
 20
829266.954058391
 10
681547.9837137022
 20
829267.6606710613
  0
TEXT
  5
98
330
17
100
AcDbEntity
  8
PLOT_NO
 62
7
100
AcDbText
 10
681563.8671361044
 20
829270.8726373931
 30
0.0
 40
5.0
  1
201
 72
1
 11
681563.8671361044
 21
829270.8726373931
 31
0.0
100
AcDbText
 73
2
  0
HATCH
  5
99
330
17
100
AcDbEntity
  8
RED_PLOTS_APPROX
 62
1
100
AcDbHatch
 10
0.0
 20
0.0
 30
0.0
210
0.0
220
0.0
230
1.0
  2
SOLID
 70
1
 71
0
 91
1
 92
3
 72
0
 73
1
 93
32
 10
681509.2966200633
 20
829175.6685556142
 10
681509.1621855136
 20
829175.1318628078
 10
681508.7323950718
 20
829173.9306789914
 10
681508.1869375857
 20
829172.7774060334
 10
681507.5310661091
 20
829171.6831505828
 10
681506.7710970428
 20
829170.658450918
 10
681505.9143493045
 20
829169.7131754567
 10
681504.9690738432
 20
829168.8564277184
 10
681503.9443741784
 20
829168.0964586522
 10
681502.8501187279
 20
829167.4405871755
 10
681501.6968457699
 20
829166.8951296895
 10
681500.4956619535
 20
829166.4653392476
 10
681499.2581353353
 20
829166.1553549669
 10
681497.9961839734
 20
829165.9681621654
 10
681496.7219611491
 20
829165.9055636121
 10
681495.5568579754
 20
829165.9628014606
 10
681483.7364234035
 20
829179.1999495623
 10
681483.7845597024
 20
829180.1797864364
 10
681483.9717525039
 20
829181.4417377983
 10
681484.2817367846
 20
829182.6792644165
 10
681484.7115272265
 20
829183.8804482329
 10
681485.2569847126
 20
829185.0337211909
 10
681485.9128561892
 20
829186.1279766414
 10
681486.6728252554
 20
829187.1526763062
 10
681487.5295729937
 20
829188.0979517675
 10
681488.474848455
 20
829188.9546995058
 10
681489.4995481198
 20
829189.7146685721
 10
681490.5938035704
 20
829190.3705400487
 10
681491.7470765284
 20
829190.9159975348
 10
681492.9482603448
 20
829191.3457879766
 10
681494.185786963
 20
829191.6557722574
 10
681494.9900403543
 20
829191.7750719785
 97
0
 75
1
 76
1
 98
0
  0
LWPOLYLINE
  5
9A
330
17
100
AcDbEntity
  8
RED_PLOTS_APPROX
 62
1
100
AcDbPolyline
 90
32
 70
1
 10
681509.2966200633
 20
829175.6685556142
 10
681509.1621855136
 20
829175.1318628078
 10
681508.7323950718
 20
829173.9306789914
 10
681508.1869375857
 20
829172.7774060334
 10
681507.5310661091
 20
829171.6831505828
 10
681506.7710970428
 20
829170.658450918
 10
681505.9143493045
 20
829169.7131754567
 10
681504.9690738432
 20
829168.8564277184
 10
681503.9443741784
 20
829168.0964586522
 10
681502.8501187279
 20
829167.4405871755
 10
681501.6968457699
 20
829166.8951296895
 10
681500.4956619535
 20
829166.4653392476
 10
681499.2581353353
 20
829166.1553549669
 10
681497.9961839734
 20
829165.9681621654
 10
681496.7219611491
 20
829165.9055636121
 10
681495.5568579754
 20
829165.9628014606
 10
681483.7364234035
 20
829179.1999495623
 10
681483.7845597024
 20
829180.1797864364
 10
681483.9717525039
 20
829181.4417377983
 10
681484.2817367846
 20
829182.6792644165
 10
681484.7115272265
 20
829183.8804482329
 10
681485.2569847126
 20
829185.0337211909
 10
681485.9128561892
 20
829186.1279766414
 10
681486.6728252554
 20
829187.1526763062
 10
681487.5295729937
 20
829188.0979517675
 10
681488.474848455
 20
829188.9546995058
 10
681489.4995481198
 20
829189.7146685721
 10
681490.5938035704
 20
829190.3705400487
 10
681491.7470765284
 20
829190.9159975348
 10
681492.9482603448
 20
829191.3457879766
 10
681494.185786963
 20
829191.6557722574
 10
681494.9900403543
 20
829191.7750719785
  0
TEXT
  5
9B
330
17
100
AcDbEntity
  8
PLOT_NO
 62
7
100
AcDbText
 10
681496.0306918285
 20
829178.2955822953
 30
0.0
 40
5.0
  1
215
 72
1
 11
681496.0306918285
 21
829178.2955822953
 31
0.0
100
AcDbText
 73
2
  0
HATCH
  5
9C
330
17
100
AcDbEntity
  8
RED_PLOTS_APPROX
 62
1
100
AcDbHatch
 10
0.0
 20
0.0
 30
0.0
210
0.0
220
0.0
230
1.0
  2
SOLID
 70
1
 71
0
 91
1
 92
3
 72
0
 73
1
 93
40
 10
681482.374830518
 20
829153.2689114517
 10
681482.3635938271
 20
829153.1931598347
 10
681482.0536095464
 20
829151.9556332165
 10
681481.6238191045
 20
829150.7544494001
 10
681481.0783616184
 20
829149.6011764421
 10
681480.4224901418
 20
829148.5069209916
 10
681480.2377607089
 20
829148.2578421851
 10
681468.1206653237
 20
829142.8243435475
 10
681467.0772109957
 20
829142.9791253756
 10
681465.8396843775
 20
829143.2891096564
 10
681464.6385005611
 20
829143.7189000982
 10
681463.4852276031
 20
829144.2643575843
 10
681462.3909721526
 20
829144.9202290609
 10
681461.3662724878
 20
829145.6801981272
 10
681460.4209970265
 20
829146.5369458655
 10
681459.5642492882
 20
829147.4822213268
 10
681458.8042802219
 20
829148.5069209916
 10
681458.1484087453
 20
829149.6011764421
 10
681457.6029512592
 20
829150.7544494001
 10
681457.1731608174
 20
829151.9556332165
 10
681456.8631765366
 20
829153.1931598347
 10
681456.6759837351
 20
829154.4551111966
 10
681456.6133851819
 20
829155.7293340209
 10
681456.6759837351
 20
829157.0035568451
 10
681456.8631765366
 20
829158.265508207
 10
681457.1731608174
 20
829159.5030348252
 10
681457.6029512592
 20
829160.7042186416
 10
681458.1484087453
 20
829161.8574915996
 10
681458.8042802219
 20
829162.9517470502
 10
681459.5642492882
 20
829163.976446715
 10
681460.4209970265
 20
829164.9217221763
 10
681461.3662724878
 20
829165.7784699146
 10
681462.3909721526
 20
829166.5384389808
 10
681463.4852276031
 20
829167.1943104574
 10
681464.6385005611
 20
829167.7397679435
 10
681465.8396843775
 20
829168.1695583854
 10
681467.0772109957
 20
829168.4795426661
 10
681468.3391623576
 20
829168.6667354676
 10
681469.6133851819
 20
829168.7293340209
 10
681469.8075566445
 20
829168.7197949886
 97
0
 75
1
 76
1
 98
0
  0
LWPOLYLINE
  5
9D
330
17
100
AcDbEntity
  8
RED_PLOTS_APPROX
 62
1
100
AcDbPolyline
 90
40
 70
1
 10
681482.374830518
 20
829153.2689114517
 10
681482.3635938271
 20
829153.1931598347
 10
681482.0536095464
 20
829151.9556332165
 10
681481.6238191045
 20
829150.7544494001
 10
681481.0783616184
 20
829149.6011764421
 10
681480.4224901418
 20
829148.5069209916
 10
681480.2377607089
 20
829148.2578421851
 10
681468.1206653237
 20
829142.8243435475
 10
681467.0772109957
 20
829142.9791253756
 10
681465.8396843775
 20
829143.2891096564
 10
681464.6385005611
 20
829143.7189000982
 10
681463.4852276031
 20
829144.2643575843
 10
681462.3909721526
 20
829144.9202290609
 10
681461.3662724878
 20
829145.6801981272
 10
681460.4209970265
 20
829146.5369458655
 10
681459.5642492882
 20
829147.4822213268
 10
681458.8042802219
 20
829148.5069209916
 10
681458.1484087453
 20
829149.6011764421
 10
681457.6029512592
 20
829150.7544494001
 10
681457.1731608174
 20
829151.9556332165
 10
681456.8631765366
 20
829153.1931598347
 10
681456.6759837351
 20
829154.4551111966
 10
681456.6133851819
 20
829155.7293340209
 10
681456.6759837351
 20
829157.0035568451
 10
681456.8631765366
 20
829158.265508207
 10
681457.1731608174
 20
829159.5030348252
 10
681457.6029512592
 20
829160.7042186416
 10
681458.1484087453
 20
829161.8574915996
 10
681458.8042802219
 20
829162.9517470502
 10
681459.5642492882
 20
829163.976446715
 10
681460.4209970265
 20
829164.9217221763
 10
681461.3662724878
 20
829165.7784699146
 10
681462.3909721526
 20
829166.5384389808
 10
681463.4852276031
 20
829167.1943104574
 10
681464.6385005611
 20
829167.7397679435
 10
681465.8396843775
 20
829168.1695583854
 10
681467.0772109957
 20
829168.4795426661
 10
681468.3391623576
 20
829168.6667354676
 10
681469.6133851819
 20
829168.7293340209
 10
681469.8075566445
 20
829168.7197949886
  0
TEXT
  5
9E
330
17
100
AcDbEntity
  8
PLOT_NO
 62
7
100
AcDbText
 10
681468.3016122242
 20
829155.2029401265
 30
0.0
 40
5.0
  1
217
 72
1
 11
681468.3016122242
 21
829155.2029401265
 31
0.0
100
AcDbText
 73
2
  0
HATCH
  5
9F
330
17
100
AcDbEntity
  8
RED_PLOTS_APPROX
 62
1
100
AcDbHatch
 10
0.0
 20
0.0
 30
0.0
210
0.0
220
0.0
230
1.0
  2
SOLID
 70
1
 71
0
 91
1
 92
3
 72
0
 73
1
 93
3
 10
681326.3479669772
 20
829308.9018799531
 10
681337.8361462188
 20
829316.9486662942
 10
681352.5394543868
 20
829296.0674975513
 97
0
 75
1
 76
1
 98
0
  0
LWPOLYLINE
  5
A0
330
17
100
AcDbEntity
  8
RED_PLOTS_APPROX
 62
1
100
AcDbPolyline
 90
3
 70
1
 10
681326.3479669772
 20
829308.9018799531
 10
681337.8361462188
 20
829316.9486662942
 10
681352.5394543868
 20
829296.0674975513
  0
TEXT
  5
A1
330
17
100
AcDbEntity
  8
PLOT_NO
 62
7
100
AcDbText
 10
681338.907855861
 20
829307.3060145995
 30
0.0
 40
5.0
  1
229
 72
1
 11
681338.907855861
 21
829307.3060145995
 31
0.0
100
AcDbText
 73
2
  0
HATCH
  5
A2
330
17
100
AcDbEntity
  8
RED_PLOTS_APPROX
 62
1
100
AcDbHatch
 10
0.0
 20
0.0
 30
0.0
210
0.0
220
0.0
230
1.0
  2
SOLID
 70
1
 71
0
 91
1
 92
3
 72
0
 73
1
 93
6
 10
681222.7611793319
 20
829405.536005331
 10
681223.5898158778
 20
829404.3632506181
 10
681234.9499837038
 20
829388.2854051235
 10
681209.7
 20
829370.3999999999
 10
681220.3036585348
 20
829354.9243902464
 10
681196.374479593
 20
829388.7909358584
 97
0
 75
1
 76
1
 98
0
  0
LWPOLYLINE
  5
A3
330
17
100
AcDbEntity
  8
RED_PLOTS_APPROX
 62
1
100
AcDbPolyline
 90
6
 70
1
 10
681222.7611793319
 20
829405.536005331
 10
681223.5898158778
 20
829404.3632506181
 10
681234.9499837038
 20
829388.2854051235
 10
681209.7
 20
829370.3999999999
 10
681220.3036585348
 20
829354.9243902464
 10
681196.374479593
 20
829388.7909358584
  0
TEXT
  5
A4
330
17
100
AcDbEntity
  8
PLOT_NO
 62
7
100
AcDbText
 10
681215.7252398999
 20
829388.0243977299
 30
0.0
 40
5.0
  1
248
 72
1
 11
681215.7252398999
 21
829388.0243977299
 31
0.0
100
AcDbText
 73
2
  0
HATCH
  5
A5
330
17
100
AcDbEntity
  8
RED_PLOTS_APPROX
 62
1
100
AcDbHatch
 10
0.0
 20
0.0
 30
0.0
210
0.0
220
0.0
230
1.0
  2
SOLID
 70
1
 71
0
 91
1
 92
3
 72
0
 73
1
 93
4
 10
681305.0374838837
 20
829413.6642727561
 10
681315.67088092
 20
829398.6499161408
 10
681294.3707249585
 20
829383.6498063088
 10
681284.3744384834
 20
829397.8112121484
 97
0
 75
1
 76
1
 98
0
  0
LWPOLYLINE
  5
A6
330
17
100
AcDbEntity
  8
RED_PLOTS_APPROX
 62
1
100
AcDbPolyline
 90
4
 70
1
 10
681305.0374838837
 20
829413.6642727561
 10
681315.67088092
 20
829398.6499161408
 10
681294.3707249585
 20
829383.6498063088
 10
681284.3744384834
 20
829397.8112121484
  0
TEXT
  5
A7
330
17
100
AcDbEntity
  8
PLOT_NO
 62
7
100
AcDbText
 10
681299.9685027237
 20
829398.5191209782
 30
0.0
 40
5.0
  1
268
 72
1
 11
681299.9685027237
 21
829398.5191209782
 31
0.0
100
AcDbText
 73
2
  0
HATCH
  5
A8
330
17
100
AcDbEntity
  8
RED_PLOTS_APPROX
 62
1
100
AcDbHatch
 10
0.0
 20
0.0
 30
0.0
210
0.0
220
0.0
230
1.0
  2
SOLID
 70
1
 71
0
 91
1
 92
3
 72
0
 73
1
 93
7
 10
681017.2680002471
 20
829693.6391994399
 10
681021.2999999999
 20
829684.5
 10
681025.1230308614
 20
829677.4911100875
 10
681002.6107536886
 20
829664.8186361823
 10
680998.2
 20
829672.7999999999
 10
680992.7999999999
 20
829684.7999999999
 10
680992.3419292765
 20
829686.0520599774
 97
0
 75
1
 76
1
 98
0
  0
LWPOLYLINE
  5
A9
330
17
100
AcDbEntity
  8
RED_PLOTS_APPROX
 62
1
100
AcDbPolyline
 90
7
 70
1
 10
681017.2680002471
 20
829693.6391994399
 10
681021.2999999999
 20
829684.5
 10
681025.1230308614
 20
829677.4911100875
 10
681002.6107536886
 20
829664.8186361823
 10
680998.2
 20
829672.7999999999
 10
680992.7999999999
 20
829684.7999999999
 10
680992.3419292765
 20
829686.0520599774
  0
TEXT
  5
AA
330
17
100
AcDbEntity
  8
PLOT_NO
 62
7
100
AcDbText
 10
681008.587043515
 20
829680.1769861643
 30
0.0
 40
5.0
  1
303
 72
1
 11
681008.587043515
 21
829680.1769861643
 31
0.0
100
AcDbText
 73
2
  0
HATCH
  5
AB
330
17
100
AcDbEntity
  8
RED_PLOTS
 62
1
100
AcDbHatch
 10
0.0
 20
0.0
 30
0.0
210
0.0
220
0.0
230
1.0
  2
SOLID
 70
1
 71
0
 91
1
 92
3
 72
0
 73
1
 93
7
 10
681040.6180448295
 20
829704.8276699942
 10
681040.7999999999
 20
829704.2999999999
 10
681044.7
 20
829695.8999999999
 10
681046.4408759123
 20
829692.8824817517
 10
681047.7
 20
829690.2
 10
681027.5250158596
 20
829678.9020088813
 10
681023.4556636058
 20
829698.0053569613
 97
0
 75
1
 76
1
 98
0
  0
LWPOLYLINE
  5
AC
330
17
100
AcDbEntity
  8
RED_PLOTS
 62
1
100
AcDbPolyline
 90
7
 70
1
 10
681040.6180448295
 20
829704.8276699942
 10
681040.7999999999
 20
829704.2999999999
 10
681044.7
 20
829695.8999999999
 10
681046.4408759123
 20
829692.8824817517
 10
681047.7
 20
829690.2
 10
681027.5250158596
 20
829678.9020088813
 10
681023.4556636058
 20
829698.0053569613
  0
TEXT
  5
AD
330
17
100
AcDbEntity
  8
PLOT_NO
 62
7
100
AcDbText
 10
681034.643328947
 20
829692.5486814829
 30
0.0
 40
5.0
  1
304
 72
1
 11
681034.643328947
 21
829692.5486814829
 31
0.0
100
AcDbText
 73
2
  0
HATCH
  5
AE
330
17
100
AcDbEntity
  8
RED_PLOTS
 62
1
100
AcDbHatch
 10
0.0
 20
0.0
 30
0.0
210
0.0
220
0.0
230
1.0
  2
SOLID
 70
1
 71
0
 91
1
 92
3
 72
0
 73
1
 93
4
 10
681007.9029281144
 20
829772.084441099
 10
681010.873797516
 20
829791.5888445615
 10
681036.6
 20
829787.7
 10
681033.4653444677
 20
829768.220354906
 97
0
 75
1
 76
1
 98
0
  0
LWPOLYLINE
  5
AF
330
17
100
AcDbEntity
  8
RED_PLOTS
 62
1
100
AcDbPolyline
 90
4
 70
1
 10
681007.9029281144
 20
829772.084441099
 10
681010.873797516
 20
829791.5888445615
 10
681036.6
 20
829787.7
 10
681033.4653444677
 20
829768.220354906
  0
TEXT
  5
B0
330
17
100
AcDbEntity
  8
PLOT_NO
 62
7
100
AcDbText
 10
681022.212142317
 20
829779.9087845135
 30
0.0
 40
5.0
  1
314
 72
1
 11
681022.212142317
 21
829779.9087845135
 31
0.0
100
AcDbText
 73
2
  0
HATCH
  5
B1
330
17
100
AcDbEntity
  8
RED_PLOTS_APPROX
 62
1
100
AcDbHatch
 10
0.0
 20
0.0
 30
0.0
210
0.0
220
0.0
230
1.0
  2
SOLID
 70
1
 71
0
 91
1
 92
3
 72
0
 73
1
 93
6
 10
681079.9073664374
 20
829763.5538913057
 10
681078.6915148982
 20
829754.6589774137
 10
681047.1033517268
 20
829749.3904966242
 10
681047.4
 20
829757.3999999999
 10
681048.1941176468
 20
829764.2823529391
 10
681050.3561588171
 20
829778.1194164292
 97
0
 75
1
 76
1
 98
0
  0
LWPOLYLINE
  5
B2
330
17
100
AcDbEntity
  8
RED_PLOTS_APPROX
 62
1
100
AcDbPolyline
 90
6
 70
1
 10
681079.9073664374
 20
829763.5538913057
 10
681078.6915148982
 20
829754.6589774137
 10
681047.1033517268
 20
829749.3904966242
 10
681047.4
 20
829757.3999999999
 10
681048.1941176468
 20
829764.2823529391
 10
681050.3561588171
 20
829778.1194164292
  0
TEXT
  5
B3
330
17
100
AcDbEntity
  8
PLOT_NO
 62
7
100
AcDbText
 10
681061.1037788766
 20
829761.8664887045
 30
0.0
 40
5.0
  1
325
 72
1
 11
681061.1037788766
 21
829761.8664887045
 31
0.0
100
AcDbText
 73
2
  0
HATCH
  5
B4
330
17
100
AcDbEntity
  8
RED_PLOTS
 62
1
100
AcDbHatch
 10
0.0
 20
0.0
 30
0.0
210
0.0
220
0.0
230
1.0
  2
SOLID
 70
1
 71
0
 91
1
 92
3
 72
0
 73
1
 93
5
 10
681109.4950819672
 20
829755.8459016398
 10
681108.6611765916
 20
829750.306387359
 10
681078.6174066025
 20
829754.1168167236
 10
681081.1372793711
 20
829772.5516753999
 10
681111.4097207221
 20
829768.5645733683
 97
0
 75
1
 76
1
 98
0
  0
LWPOLYLINE
  5
B5
330
17
100
AcDbEntity
  8
RED_PLOTS
 62
1
100
AcDbPolyline
 90
5
 70
1
 10
681109.4950819672
 20
829755.8459016398
 10
681108.6611765916
 20
829750.306387359
 10
681078.6174066025
 20
829754.1168167236
 10
681081.1372793711
 20
829772.5516753999
 10
681111.4097207221
 20
829768.5645733683
  0
TEXT
  5
B6
330
17
100
AcDbEntity
  8
PLOT_NO
 62
7
100
AcDbText
 10
681094.9384267133
 20
829761.400064778
 30
0.0
 40
5.0
  1
326
 72
1
 11
681094.9384267133
 21
829761.400064778
 31
0.0
100
AcDbText
 73
2
  0
HATCH
  5
B7
330
17
100
AcDbEntity
  8
RED_PLOTS_APPROX
 62
1
100
AcDbHatch
 10
0.0
 20
0.0
 30
0.0
210
0.0
220
0.0
230
1.0
  2
SOLID
 70
1
 71
0
 91
1
 92
3
 72
0
 73
1
 93
8
 10
681160.9919139211
 20
829608.8531219452
 10
681159.9705882353
 20
829610.2999999999
 10
681159.9
 20
829610.3999999999
 10
681159.8717699776
 20
829610.3798356982
 10
681156.2314429105
 20
829607.7796020788
 10
681148.8612489738
 20
829620.2188658033
 10
681175.0412019291
 20
829642.5363408361
 10
681187.9765304803
 20
829624.2840367454
 97
0
 75
1
 76
1
 98
0
  0
LWPOLYLINE
  5
B8
330
17
100
AcDbEntity
  8
RED_PLOTS_APPROX
 62
1
100
AcDbPolyline
 90
8
 70
1
 10
681160.9919139211
 20
829608.8531219452
 10
681159.9705882353
 20
829610.2999999999
 10
681159.9
 20
829610.3999999999
 10
681159.8717699776
 20
829610.3798356982
 10
681156.2314429105
 20
829607.7796020788
 10
681148.8612489738
 20
829620.2188658033
 10
681175.0412019291
 20
829642.5363408361
 10
681187.9765304803
 20
829624.2840367454
  0
TEXT
  5
B9
330
17
100
AcDbEntity
  8
PLOT_NO
 62
7
100
AcDbText
 10
681168.1708936928
 20
829624.0870230341
 30
0.0
 40
5.0
  1
341
 72
1
 11
681168.1708936928
 21
829624.0870230341
 31
0.0
100
AcDbText
 73
2
  0
HATCH
  5
BA
330
17
100
AcDbEntity
  8
RED_PLOTS_APPROX
 62
1
100
AcDbHatch
 10
0.0
 20
0.0
 30
0.0
210
0.0
220
0.0
230
1.0
  2
SOLID
 70
1
 71
0
 91
1
 92
3
 72
0
 73
1
 93
3
 10
681211.985547357
 20
829687.8785197526
 10
681186.6
 20
829691.7
 10
681190.4407199834
 20
829716.1845898939
 97
0
 75
1
 76
1
 98
0
  0
LWPOLYLINE
  5
BB
330
17
100
AcDbEntity
  8
RED_PLOTS_APPROX
 62
1
100
AcDbPolyline
 90
3
 70
1
 10
681211.985547357
 20
829687.8785197526
 10
681186.6
 20
829691.7
 10
681190.4407199834
 20
829716.1845898939
  0
TEXT
  5
BC
330
17
100
AcDbEntity
  8
PLOT_NO
 62
7
100
AcDbText
 10
681196.3420891134
 20
829698.5877032155
 30
0.0
 40
5.0
  1
353
 72
1
 11
681196.3420891134
 21
829698.5877032155
 31
0.0
100
AcDbText
 73
2
  0
HATCH
  5
BD
330
17
100
AcDbEntity
  8
RED_PLOTS_APPROX
 62
1
100
AcDbHatch
 10
0.0
 20
0.0
 30
0.0
210
0.0
220
0.0
230
1.0
  2
SOLID
 70
1
 71
0
 91
1
 92
3
 72
0
 73
1
 93
6
 10
681408.565236962
 20
829735.9349479444
 10
681394.1531859624
 20
829738.120000838
 10
681387.9461536215
 20
829765.3816377515
 10
681399.9
 20
829763.5499999999
 10
681418.4777122316
 20
829760.7034150612
 10
681420.5239501275
 20
829760.3898786095
 97
0
 75
1
 76
1
 98
0
  0
LWPOLYLINE
  5
BE
330
17
100
AcDbEntity
  8
RED_PLOTS_APPROX
 62
1
100
AcDbPolyline
 90
6
 70
1
 10
681408.565236962
 20
829735.9349479444
 10
681394.1531859624
 20
829738.120000838
 10
681387.9461536215
 20
829765.3816377515
 10
681399.9
 20
829763.5499999999
 10
681418.4777122316
 20
829760.7034150612
 10
681420.5239501275
 20
829760.3898786095
  0
TEXT
  5
BF
330
17
100
AcDbEntity
  8
PLOT_NO
 62
7
100
AcDbText
 10
681402.9800624881
 20
829751.6233929269
 30
0.0
 40
5.0
  1
392
 72
1
 11
681402.9800624881
 21
829751.6233929269
 31
0.0
100
AcDbText
 73
2
  0
HATCH
  5
C0
330
17
100
AcDbEntity
  8
RED_PLOTS
 62
1
100
AcDbHatch
 10
0.0
 20
0.0
 30
0.0
210
0.0
220
0.0
230
1.0
  2
SOLID
 70
1
 71
0
 91
1
 92
3
 72
0
 73
1
 93
4
 10
681595.0594075144
 20
829729.1122109826
 10
681590.4272366556
 20
829698.4801133679
 10
681573.0101523566
 20
829701.0668090559
 10
681577.6722811093
 20
829731.7466240743
 97
0
 75
1
 76
1
 98
0
  0
LWPOLYLINE
  5
C1
330
17
100
AcDbEntity
  8
RED_PLOTS
 62
1
100
AcDbPolyline
 90
4
 70
1
 10
681595.0594075144
 20
829729.1122109826
 10
681590.4272366556
 20
829698.4801133679
 10
681573.0101523566
 20
829701.0668090559
 10
681577.6722811093
 20
829731.7466240743
  0
TEXT
  5
C2
330
17
100
AcDbEntity
  8
PLOT_NO
 62
7
100
AcDbText
 10
681584.03936001
 20
829715.0985398347
 30
0.0
 40
5.0
  1
415
 72
1
 11
681584.03936001
 21
829715.0985398347
 31
0.0
100
AcDbText
 73
2
  0
HATCH
  5
C3
330
17
100
AcDbEntity
  8
RED_PLOTS_APPROX
 62
1
100
AcDbHatch
 10
0.0
 20
0.0
 30
0.0
210
0.0
220
0.0
230
1.0
  2
SOLID
 70
1
 71
0
 91
1
 92
3
 72
0
 73
1
 93
6
 10
681500.5394367875
 20
829430.8160730264
 10
681497.4
 20
829428.6
 10
681515.1217536344
 20
829403.218844371
 10
681499.7046922875
 20
829392.3723277597
 10
681481.8043904958
 20
829417.7937647579
 10
681500.4784856309
 20
829430.900427803
 97
0
 75
1
 76
1
 98
0
  0
LWPOLYLINE
  5
C4
330
17
100
AcDbEntity
  8
RED_PLOTS_APPROX
 62
1
100
AcDbPolyline
 90
6
 70
1
 10
681500.5394367875
 20
829430.8160730264
 10
681497.4
 20
829428.6
 10
681515.1217536344
 20
829403.218844371
 10
681499.7046922875
 20
829392.3723277597
 10
681481.8043904958
 20
829417.7937647579
 10
681500.4784856309
 20
829430.900427803
  0
TEXT
  5
C5
330
17
100
AcDbEntity
  8
PLOT_NO
 62
7
100
AcDbText
 10
681498.4810715946
 20
829410.5465871806
 30
0.0
 40
5.0
  1
450
 72
1
 11
681498.4810715946
 21
829410.5465871806
 31
0.0
100
AcDbText
 73
2
  0
HATCH
  5
C6
330
17
100
AcDbEntity
  8
RED_PLOTS_APPROX
 62
1
100
AcDbHatch
 10
0.0
 20
0.0
 30
0.0
210
0.0
220
0.0
230
1.0
  2
SOLID
 70
1
 71
0
 91
1
 92
3
 72
0
 73
1
 93
4
 10
681483.5541057892
 20
829349.8365273509
 10
681468.9
 20
829370.7
 10
681484.2680525673
 20
829381.5120369832
 10
681488.9821668223
 20
829384.8286040918
 97
0
 75
1
 76
1
 98
0
  0
LWPOLYLINE
  5
C7
330
17
100
AcDbEntity
  8
RED_PLOTS_APPROX
 62
1
100
AcDbPolyline
 90
4
 70
1
 10
681483.5541057892
 20
829349.8365273509
 10
681468.9
 20
829370.7
 10
681484.2680525673
 20
829381.5120369832
 10
681488.9821668223
 20
829384.8286040918
  0
TEXT
  5
C8
330
17
100
AcDbEntity
  8
PLOT_NO
 62
7
100
AcDbText
 10
681480.4787575372
 20
829368.4550438143
 30
0.0
 40
5.0
  1
454
 72
1
 11
681480.4787575372
 21
829368.4550438143
 31
0.0
100
AcDbText
 73
2
  0
HATCH
  5
C9
330
17
100
AcDbEntity
  8
RED_PLOTS_APPROX
 62
1
100
AcDbHatch
 10
0.0
 20
0.0
 30
0.0
210
0.0
220
0.0
230
1.0
  2
SOLID
 70
1
 71
0
 91
1
 92
3
 72
0
 73
1
 93
4
 10
680926.9330579083
 20
829830.0591773018
 10
680902.8676563045
 20
829833.4040056908
 10
680905.7999999999
 20
829852.5
 10
680928.1227355667
 20
829849.1078195953
 97
0
 75
1
 76
1
 98
0
  0
LWPOLYLINE
  5
CA
330
17
100
AcDbEntity
  8
RED_PLOTS_APPROX
 62
1
100
AcDbPolyline
 90
4
 70
1
 10
680926.9330579083
 20
829830.0591773018
 10
680902.8676563045
 20
829833.4040056908
 10
680905.7999999999
 20
829852.5
 10
680928.1227355667
 20
829849.1078195953
  0
TEXT
  5
CB
330
17
100
AcDbEntity
  8
PLOT_NO
 62
7
100
AcDbText
 10
680915.8882177061
 20
829841.154879475
 30
0.0
 40
5.0
  1
466
 72
1
 11
680915.8882177061
 21
829841.154879475
 31
0.0
100
AcDbText
 73
2
  0
HATCH
  5
CC
330
17
100
AcDbEntity
  8
RED_PLOTS
 62
1
100
AcDbHatch
 10
0.0
 20
0.0
 30
0.0
210
0.0
220
0.0
230
1.0
  2
SOLID
 70
1
 71
0
 91
1
 92
3
 72
0
 73
1
 93
10
 10
680825.1437837837
 20
829755.0567567566
 10
680827.7999999999
 20
829757.1
 10
680831.4
 20
829760.1
 10
680834.7
 20
829763.7
 10
680837.7
 20
829767.2999999999
 10
680840.6435127979
 20
829771.1265666372
 10
680864.9199836367
 20
829752.0628349356
 10
680864.5008547009
 20
829751.494017094
 10
680843.1
 20
829729.7999999999
 10
680824.7999999999
 20
829754.7
 97
0
 75
1
 76
1
 98
0
  0
LWPOLYLINE
  5
CD
330
17
100
AcDbEntity
  8
RED_PLOTS
 62
1
100
AcDbPolyline
 90
10
 70
1
 10
680825.1437837837
 20
829755.0567567566
 10
680827.7999999999
 20
829757.1
 10
680831.4
 20
829760.1
 10
680834.7
 20
829763.7
 10
680837.7
 20
829767.2999999999
 10
680840.6435127979
 20
829771.1265666372
 10
680864.9199836367
 20
829752.0628349356
 10
680864.5008547009
 20
829751.494017094
 10
680843.1
 20
829729.7999999999
 10
680824.7999999999
 20
829754.7
  0
TEXT
  5
CE
330
17
100
AcDbEntity
  8
PLOT_NO
 62
7
100
AcDbText
 10
680844.1352667739
 20
829751.1689888916
 30
0.0
 40
5.0
  1
528
 72
1
 11
680844.1352667739
 21
829751.1689888916
 31
0.0
100
AcDbText
 73
2
  0
HATCH
  5
CF
330
17
100
AcDbEntity
  8
RED_PLOTS_APPROX
 62
1
100
AcDbHatch
 10
0.0
 20
0.0
 30
0.0
210
0.0
220
0.0
230
1.0
  2
SOLID
 70
1
 71
0
 91
1
 92
3
 72
0
 73
1
 93
9
 10
680875.2689125275
 20
829770.4607958975
 10
680873.4
 20
829766.1
 10
680870.1
 20
829759.7999999999
 10
680866.2
 20
829753.7999999999
 10
680864.920164271
 20
829752.0630800822
 10
680840.7
 20
829771.2
 10
680843.1
 20
829775.1
 10
680845.2
 20
829779.2999999999
 10
680845.4384543428
 20
829779.8109735916
 97
0
 75
1
 76
1
 98
0
  0
LWPOLYLINE
  5
D0
330
17
100
AcDbEntity
  8
RED_PLOTS_APPROX
 62
1
100
AcDbPolyline
 90
9
 70
1
 10
680875.2689125275
 20
829770.4607958975
 10
680873.4
 20
829766.1
 10
680870.1
 20
829759.7999999999
 10
680866.2
 20
829753.7999999999
 10
680864.920164271
 20
829752.0630800822
 10
680840.7
 20
829771.2
 10
680843.1
 20
829775.1
 10
680845.2
 20
829779.2999999999
 10
680845.4384543428
 20
829779.8109735916
  0
TEXT
  5
D1
330
17
100
AcDbEntity
  8
PLOT_NO
 62
7
100
AcDbText
 10
680858.4981706187
 20
829767.3802301892
 30
0.0
 40
5.0
  1
530
 72
1
 11
680858.4981706187
 21
829767.3802301892
 31
0.0
100
AcDbText
 73
2
  0
HATCH
  5
D2
330
17
100
AcDbEntity
  8
RED_PLOTS_APPROX
 62
1
100
AcDbHatch
 10
0.0
 20
0.0
 30
0.0
210
0.0
220
0.0
230
1.0
  2
SOLID
 70
1
 71
0
 91
1
 92
3
 72
0
 73
1
 93
4
 10
680947.1533175868
 20
829919.4789441417
 10
680944.745818144
 20
829903.6582335173
 10
680914.2413186668
 20
829908.2937211829
 10
680916.6254413618
 20
829924.061441734
 97
0
 75
1
 76
1
 98
0
  0
LWPOLYLINE
  5
D3
330
17
100
AcDbEntity
  8
RED_PLOTS_APPROX
 62
1
100
AcDbPolyline
 90
4
 70
1
 10
680947.1533175868
 20
829919.4789441417
 10
680944.745818144
 20
829903.6582335173
 10
680914.2413186668
 20
829908.2937211829
 10
680916.6254413618
 20
829924.061441734
  0
TEXT
  5
D4
330
17
100
AcDbEntity
  8
PLOT_NO
 62
7
100
AcDbText
 10
680930.7004685921
 20
829913.8723882128
 30
0.0
 40
5.0
  1
543
 72
1
 11
680930.7004685921
 21
829913.8723882128
 31
0.0
100
AcDbText
 73
2
  0
HATCH
  5
D5
330
17
100
AcDbEntity
  8
RED_PLOTS
 62
1
100
AcDbHatch
 10
0.0
 20
0.0
 30
0.0
210
0.0
220
0.0
230
1.0
  2
SOLID
 70
1
 71
0
 91
1
 92
3
 72
0
 73
1
 93
6
 10
680783.9822670139
 20
829966.383818367
 10
680797.5794117653
 20
829964.3558823528
 10
680801.1
 20
829963.7999999999
 10
680796.88539823
 20
829935.3514380531
 10
680785.7328358343
 20
829937.0328358188
 10
680779.646529563
 20
829937.977262654
 97
0
 75
1
 76
1
 98
0
  0
LWPOLYLINE
  5
D6
330
17
100
AcDbEntity
  8
RED_PLOTS
 62
1
100
AcDbPolyline
 90
6
 70
1
 10
680783.9822670139
 20
829966.383818367
 10
680797.5794117653
 20
829964.3558823528
 10
680801.1
 20
829963.7999999999
 10
680796.88539823
 20
829935.3514380531
 10
680785.7328358343
 20
829937.0328358188
 10
680779.646529563
 20
829937.977262654
  0
TEXT
  5
D7
330
17
100
AcDbEntity
  8
PLOT_NO
 62
7
100
AcDbText
 10
680790.4028358703
 20
829950.8624159409
 30
0.0
 40
5.0
  1
563
 72
1
 11
680790.4028358703
 21
829950.8624159409
 31
0.0
100
AcDbText
 73
2
  0
HATCH
  5
D8
330
17
100
AcDbEntity
  8
RED_PLOTS_APPROX
 62
1
100
AcDbHatch
 10
0.0
 20
0.0
 30
0.0
210
0.0
220
0.0
230
1.0
  2
SOLID
 70
1
 71
0
 91
1
 92
3
 72
0
 73
1
 93
6
 10
680850.2574175801
 20
829920.1746983938
 10
680829.033977731
 20
829901.5203050836
 10
680827.2144694533
 20
829901.7947998669
 10
680831.538852834
 20
829930.1269668436
 10
680848.7818307522
 20
829927.5273575773
 10
680851.2988720558
 20
829927.1478799762
 97
0
 75
1
 76
1
 98
0
  0
LWPOLYLINE
  5
D9
330
17
100
AcDbEntity
  8
RED_PLOTS_APPROX
 62
1
100
AcDbPolyline
 90
6
 70
1
 10
680850.2574175801
 20
829920.1746983938
 10
680829.033977731
 20
829901.5203050836
 10
680827.2144694533
 20
829901.7947998669
 10
680831.538852834
 20
829930.1269668436
 10
680848.7818307522
 20
829927.5273575773
 10
680851.2988720558
 20
829927.1478799762
  0
TEXT
  5
DA
330
17
100
AcDbEntity
  8
PLOT_NO
 62
7
100
AcDbText
 10
680837.7929485763
 20
829918.441675587
 30
0.0
 40
5.0
  1
568
 72
1
 11
680837.7929485763
 21
829918.441675587
 31
0.0
100
AcDbText
 73
2
  0
HATCH
  5
DB
330
17
100
AcDbEntity
  8
RED_PLOTS_APPROX
 62
1
100
AcDbHatch
 10
0.0
 20
0.0
 30
0.0
210
0.0
220
0.0
230
1.0
  2
SOLID
 70
1
 71
0
 91
1
 92
3
 72
0
 73
1
 93
5
 10
681561.2226962675
 20
829822.038985414
 10
681567.6197503901
 20
829821.0697347893
 10
681563.1298740008
 20
829790.602716434
 10
681526.7999999999
 20
829796.1
 10
681526.8865179337
 20
829796.6638582578
 97
0
 75
1
 76
1
 98
0
  0
LWPOLYLINE
  5
DC
330
17
100
AcDbEntity
  8
RED_PLOTS_APPROX
 62
1
100
AcDbPolyline
 90
5
 70
1
 10
681561.2226962675
 20
829822.038985414
 10
681567.6197503901
 20
829821.0697347893
 10
681563.1298740008
 20
829790.602716434
 10
681526.7999999999
 20
829796.1
 10
681526.8865179337
 20
829796.6638582578
  0
TEXT
  5
DD
330
17
100
AcDbEntity
  8
PLOT_NO
 62
7
100
AcDbText
 10
681552.2415597803
 20
829804.1698987922
 30
0.0
 40
5.0
  1
661
 72
1
 11
681552.2415597803
 21
829804.1698987922
 31
0.0
100
AcDbText
 73
2
  0
HATCH
  5
DE
330
17
100
AcDbEntity
  8
RED_PLOTS
 62
1
100
AcDbHatch
 10
0.0
 20
0.0
 30
0.0
210
0.0
220
0.0
230
1.0
  2
SOLID
 70
1
 71
0
 91
1
 92
3
 72
0
 73
1
 93
5
 10
681491.7
 20
829829.7
 10
681488.1
 20
829804.7999999999
 10
681481.7999999999
 20
829805.7
 10
681476.7
 20
829812.6
 10
681479.4
 20
829831.5
 97
0
 75
1
 76
1
 98
0
  0
LWPOLYLINE
  5
DF
330
17
100
AcDbEntity
  8
RED_PLOTS
 62
1
100
AcDbPolyline
 90
5
 70
1
 10
681491.7
 20
829829.7
 10
681488.1
 20
829804.7999999999
 10
681481.7999999999
 20
829805.7
 10
681476.7
 20
829812.6
 10
681479.4
 20
829831.5
  0
TEXT
  5
E0
330
17
100
AcDbEntity
  8
PLOT_NO
 62
7
100
AcDbText
 10
681484.1116449885
 20
829818.7624789595
 30
0.0
 40
5.0
  1
669
 72
1
 11
681484.1116449885
 21
829818.7624789595
 31
0.0
100
AcDbText
 73
2
  0
HATCH
  5
E1
330
17
100
AcDbEntity
  8
RED_PLOTS_APPROX
 62
1
100
AcDbHatch
 10
0.0
 20
0.0
 30
0.0
210
0.0
220
0.0
230
1.0
  2
SOLID
 70
1
 71
0
 91
1
 92
3
 72
0
 73
1
 93
5
 10
681413.2298585409
 20
829863.9567417832
 10
681427.9429790236
 20
829842.3968603157
 10
681426.4976143918
 20
829842.6154868987
 10
681408.8148192979
 20
829845.2901954004
 10
681392.1531085614
 20
829847.8104541672
 97
0
 75
1
 76
1
 98
0
  0
LWPOLYLINE
  5
E2
330
17
100
AcDbEntity
  8
RED_PLOTS_APPROX
 62
1
100
AcDbPolyline
 90
5
 70
1
 10
681413.2298585409
 20
829863.9567417832
 10
681427.9429790236
 20
829842.3968603157
 10
681426.4976143918
 20
829842.6154868987
 10
681408.8148192979
 20
829845.2901954004
 10
681392.1531085614
 20
829847.8104541672
  0
TEXT
  5
E3
330
17
100
AcDbEntity
  8
PLOT_NO
 62
7
100
AcDbText
 10
681411.1086487087
 20
829851.3880187555
 30
0.0
 40
5.0
  1
674
 72
1
 11
681411.1086487087
 21
829851.3880187555
 31
0.0
100
AcDbText
 73
2
  0
HATCH
  5
E4
330
17
100
AcDbEntity
  8
RED_PLOTS_APPROX
 62
1
100
AcDbHatch
 10
0.0
 20
0.0
 30
0.0
210
0.0
220
0.0
230
1.0
  2
SOLID
 70
1
 71
0
 91
1
 92
3
 72
0
 73
1
 93
4
 10
681424.6875410313
 20
829815.2717484505
 10
681424.1661743609
 20
829811.4441961101
 10
681404.1073529046
 20
829814.4481742027
 10
681407.4432180413
 20
829836.3038423402
 97
0
 75
1
 76
1
 98
0
  0
LWPOLYLINE
  5
E5
330
17
100
AcDbEntity
  8
RED_PLOTS_APPROX
 62
1
100
AcDbPolyline
 90
4
 70
1
 10
681424.6875410313
 20
829815.2717484505
 10
681424.1661743609
 20
829811.4441961101
 10
681404.1073529046
 20
829814.4481742027
 10
681407.4432180413
 20
829836.3038423402
  0
TEXT
  5
E6
330
17
100
AcDbEntity
  8
PLOT_NO
 62
7
100
AcDbText
 10
681412.9105747341
 20
829820.7722885112
 30
0.0
 40
5.0
  1
675
 72
1
 11
681412.9105747341
 21
829820.7722885112
 31
0.0
100
AcDbText
 73
2
  0
HATCH
  5
E7
330
17
100
AcDbEntity
  8
RED_PLOTS
 62
1
100
AcDbHatch
 10
0.0
 20
0.0
 30
0.0
210
0.0
220
0.0
230
1.0
  2
SOLID
 70
1
 71
0
 91
1
 92
3
 72
0
 73
1
 93
6
 10
681275.1357339575
 20
829834.1453731754
 10
681257.4290462212
 20
829836.7970993582
 10
681261.9557930405
 20
829867.5143099178
 10
681279.8165125668
 20
829864.8012892304
 10
681279.8114741446
 20
829864.7682788783
 10
681279.6
 20
829864.7999999999
 97
0
 75
1
 76
1
 98
0
  0
LWPOLYLINE
  5
E8
330
17
100
AcDbEntity
  8
RED_PLOTS
 62
1
100
AcDbPolyline
 90
6
 70
1
 10
681275.1357339575
 20
829834.1453731754
 10
681257.4290462212
 20
829836.7970993582
 10
681261.9557930405
 20
829867.5143099178
 10
681279.8165125668
 20
829864.8012892304
 10
681279.8114741446
 20
829864.7682788783
 10
681279.6
 20
829864.7999999999
  0
TEXT
  5
E9
330
17
100
AcDbEntity
  8
PLOT_NO
 62
7
100
AcDbText
 10
681268.5286228094
 20
829850.8154507853
 30
0.0
 40
5.0
  1
681
 72
1
 11
681268.5286228094
 21
829850.8154507853
 31
0.0
100
AcDbText
 73
2
  0
HATCH
  5
EA
330
17
100
AcDbEntity
  8
RED_PLOTS
 62
1
100
AcDbHatch
 10
0.0
 20
0.0
 30
0.0
210
0.0
220
0.0
230
1.0
  2
SOLID
 70
1
 71
0
 91
1
 92
3
 72
0
 73
1
 93
23
 10
681099.2999999999
 20
829918.7999999999
 10
681079.5
 20
829904.1
 10
681079.5
 20
829905.2999999999
 10
681079.7999999999
 20
829906.5
 10
681080.4
 20
829907.7
 10
681080.7
 20
829908.8999999999
 10
681081.2999999999
 20
829910.1
 10
681081.9
 20
829911.0
 10
681082.7999999999
 20
829912.2
 10
681083.4
 20
829913.1
 10
681084.2999999999
 20
829914.0
 10
681085.2
 20
829914.8999999999
 10
681086.4
 20
829915.5
 10
681087.2999999999
 20
829916.3999999999
 10
681088.5
 20
829917.0
 10
681089.4
 20
829917.2999999999
 10
681090.6
 20
829917.8999999999
 10
681091.7999999999
 20
829918.2
 10
681093.0
 20
829918.5
 10
681094.2
 20
829918.7999999999
 10
681095.7
 20
829918.7999999999
 10
681096.9
 20
829919.1
 10
681098.1
 20
829918.7999999999
 97
0
 75
1
 76
1
 98
0
  0
LWPOLYLINE
  5
EB
330
17
100
AcDbEntity
  8
RED_PLOTS
 62
1
100
AcDbPolyline
 90
23
 70
1
 10
681099.2999999999
 20
829918.7999999999
 10
681079.5
 20
829904.1
 10
681079.5
 20
829905.2999999999
 10
681079.7999999999
 20
829906.5
 10
681080.4
 20
829907.7
 10
681080.7
 20
829908.8999999999
 10
681081.2999999999
 20
829910.1
 10
681081.9
 20
829911.0
 10
681082.7999999999
 20
829912.2
 10
681083.4
 20
829913.1
 10
681084.2999999999
 20
829914.0
 10
681085.2
 20
829914.8999999999
 10
681086.4
 20
829915.5
 10
681087.2999999999
 20
829916.3999999999
 10
681088.5
 20
829917.0
 10
681089.4
 20
829917.2999999999
 10
681090.6
 20
829917.8999999999
 10
681091.7999999999
 20
829918.2
 10
681093.0
 20
829918.5
 10
681094.2
 20
829918.7999999999
 10
681095.7
 20
829918.7999999999
 10
681096.9
 20
829919.1
 10
681098.1
 20
829918.7999999999
  0
TEXT
  5
EC
330
17
100
AcDbEntity
  8
PLOT_NO
 62
7
100
AcDbText
 10
681087.9842479677
 20
829913.0238821141
 30
0.0
 40
5.0
  1
698
 72
1
 11
681087.9842479677
 21
829913.0238821141
 31
0.0
100
AcDbText
 73
2
  0
HATCH
  5
ED
330
17
100
AcDbEntity
  8
RED_PLOTS_APPROX
 62
1
100
AcDbHatch
 10
0.0
 20
0.0
 30
0.0
210
0.0
220
0.0
230
1.0
  2
SOLID
 70
1
 71
0
 91
1
 92
3
 72
0
 73
1
 93
5
 10
681981.7346695383
 20
829743.1138556709
 10
681985.2752999754
 20
829766.0886131744
 10
682015.9837992395
 20
829761.4448888955
 10
682013.054787099
 20
829742.2568705878
 10
682011.1326807512
 20
829729.6651126763
 97
0
 75
1
 76
1
 98
0
  0
LWPOLYLINE
  5
EE
330
17
100
AcDbEntity
  8
RED_PLOTS_APPROX
 62
1
100
AcDbPolyline
 90
5
 70
1
 10
681981.7346695383
 20
829743.1138556709
 10
681985.2752999754
 20
829766.0886131744
 10
682015.9837992395
 20
829761.4448888955
 10
682013.054787099
 20
829742.2568705878
 10
682011.1326807512
 20
829729.6651126763
  0
TEXT
  5
EF
330
17
100
AcDbEntity
  8
PLOT_NO
 62
7
100
AcDbText
 10
681999.3356248789
 20
829749.8331452744
 30
0.0
 40
5.0
  1
726
 72
1
 11
681999.3356248789
 21
829749.8331452744
 31
0.0
100
AcDbText
 73
2
  0
HATCH
  5
F0
330
17
100
AcDbEntity
  8
RED_PLOTS
 62
1
100
AcDbHatch
 10
0.0
 20
0.0
 30
0.0
210
0.0
220
0.0
230
1.0
  2
SOLID
 70
1
 71
0
 91
1
 92
3
 72
0
 73
1
 93
4
 10
682013.054787099
 20
829742.2568705878
 10
682015.9837992395
 20
829761.4448888955
 10
682046.5741778401
 20
829756.8190267655
 10
682043.6448939026
 20
829737.6083739657
 97
0
 75
1
 76
1
 98
0
  0
LWPOLYLINE
  5
F1
330
17
100
AcDbEntity
  8
RED_PLOTS
 62
1
100
AcDbPolyline
 90
4
 70
1
 10
682013.054787099
 20
829742.2568705878
 10
682015.9837992395
 20
829761.4448888955
 10
682046.5741778401
 20
829756.8190267655
 10
682043.6448939026
 20
829737.6083739657
  0
TEXT
  5
F2
330
17
100
AcDbEntity
  8
PLOT_NO
 62
7
100
AcDbText
 10
682029.8173324105
 20
829749.5316813334
 30
0.0
 40
5.0
  1
727
 72
1
 11
682029.8173324105
 21
829749.5316813334
 31
0.0
100
AcDbText
 73
2
  0
HATCH
  5
F3
330
17
100
AcDbEntity
  8
RED_PLOTS
 62
1
100
AcDbHatch
 10
0.0
 20
0.0
 30
0.0
210
0.0
220
0.0
230
1.0
  2
SOLID
 70
1
 71
0
 91
1
 92
3
 72
0
 73
1
 93
4
 10
681795.6108547531
 20
829755.3736572529
 10
681776.7014371003
 20
829758.3093659296
 10
681781.1096089269
 20
829787.0384857649
 10
681799.8648891104
 20
829784.2403189633
 97
0
 75
1
 76
1
 98
0
  0
LWPOLYLINE
  5
F4
330
17
100
AcDbEntity
  8
RED_PLOTS
 62
1
100
AcDbPolyline
 90
4
 70
1
 10
681795.6108547531
 20
829755.3736572529
 10
681776.7014371003
 20
829758.3093659296
 10
681781.1096089269
 20
829787.0384857649
 10
681799.8648891104
 20
829784.2403189633
  0
TEXT
  5
F5
330
17
100
AcDbEntity
  8
PLOT_NO
 62
7
100
AcDbText
 10
681788.3244994994
 20
829771.2177525125
 30
0.0
 40
5.0
  1
743
 72
1
 11
681788.3244994994
 21
829771.2177525125
 31
0.0
100
AcDbText
 73
2
  0
HATCH
  5
F6
330
17
100
AcDbEntity
  8
RED_PLOTS
 62
1
100
AcDbHatch
 10
0.0
 20
0.0
 30
0.0
210
0.0
220
0.0
230
1.0
  2
SOLID
 70
1
 71
0
 91
1
 92
3
 72
0
 73
1
 93
4
 10
681745.5
 20
829737.6
 10
681764.3810570847
 20
829734.774732334
 10
681759.7551019476
 20
829704.1837386852
 10
681741.0
 20
829707.0
 97
0
 75
1
 76
1
 98
0
  0
LWPOLYLINE
  5
F7
330
17
100
AcDbEntity
  8
RED_PLOTS
 62
1
100
AcDbPolyline
 90
4
 70
1
 10
681745.5
 20
829737.6
 10
681764.3810570847
 20
829734.774732334
 10
681759.7551019476
 20
829704.1837386852
 10
681741.0
 20
829707.0
  0
TEXT
  5
F8
330
17
100
AcDbEntity
  8
PLOT_NO
 62
7
100
AcDbText
 10
681752.6620507895
 20
829720.9064138136
 30
0.0
 40
5.0
  1
749
 72
1
 11
681752.6620507895
 21
829720.9064138136
 31
0.0
100
AcDbText
 73
2
  0
HATCH
  5
F9
330
17
100
AcDbEntity
  8
RED_PLOTS_APPROX
 62
1
100
AcDbHatch
 10
0.0
 20
0.0
 30
0.0
210
0.0
220
0.0
230
1.0
  2
SOLID
 70
1
 71
0
 91
1
 92
3
 72
0
 73
1
 93
7
 10
681761.4066403724
 20
829672.4582844692
 10
681755.1
 20
829673.3999999999
 10
681759.7551019476
 20
829704.1837386852
 10
681778.3635991976
 20
829701.3894914943
 10
681778.5099292084
 20
829701.3675186172
 10
681778.5
 20
829701.2999999999
 10
681787.3419502926
 20
829700.0164910865
 97
0
 75
1
 76
1
 98
0
  0
LWPOLYLINE
  5
FA
330
17
100
AcDbEntity
  8
RED_PLOTS_APPROX
 62
1
100
AcDbPolyline
 90
7
 70
1
 10
681761.4066403724
 20
829672.4582844692
 10
681755.1
 20
829673.3999999999
 10
681759.7551019476
 20
829704.1837386852
 10
681778.3635991976
 20
829701.3894914943
 10
681778.5099292084
 20
829701.3675186172
 10
681778.5
 20
829701.2999999999
 10
681787.3419502926
 20
829700.0164910865
  0
TEXT
  5
FB
330
17
100
AcDbEntity
  8
PLOT_NO
 62
7
100
AcDbText
 10
681767.4966903339
 20
829690.5675398849
 30
0.0
 40
5.0
  1
750
 72
1
 11
681767.4966903339
 21
829690.5675398849
 31
0.0
100
AcDbText
 73
2
  0
HATCH
  5
FC
330
17
100
AcDbEntity
  8
RED_PLOTS
 62
1
100
AcDbHatch
 10
0.0
 20
0.0
 30
0.0
210
0.0
220
0.0
230
1.0
  2
SOLID
 70
1
 71
0
 91
1
 92
3
 72
0
 73
1
 93
5
 10
681764.3810570847
 20
829734.774732334
 10
681796.0846153849
 20
829730.0307692307
 10
681783.0
 20
829731.8999999999
 10
681778.3635991976
 20
829701.3894914943
 10
681759.7551019476
 20
829704.1837386852
 97
0
 75
1
 76
1
 98
0
  0
LWPOLYLINE
  5
FD
330
17
100
AcDbEntity
  8
RED_PLOTS
 62
1
100
AcDbPolyline
 90
5
 70
1
 10
681764.3810570847
 20
829734.774732334
 10
681796.0846153849
 20
829730.0307692307
 10
681783.0
 20
829731.8999999999
 10
681778.3635991976
 20
829701.3894914943
 10
681759.7551019476
 20
829704.1837386852
  0
TEXT
  5
FE
330
17
100
AcDbEntity
  8
PLOT_NO
 62
7
100
AcDbText
 10
681771.3950675662
 20
829718.0997710801
 30
0.0
 40
5.0
  1
751
 72
1
 11
681771.3950675662
 21
829718.0997710801
 31
0.0
100
AcDbText
 73
2
  0
HATCH
  5
FF
330
17
100
AcDbEntity
  8
RED_PLOTS_APPROX
 62
1
100
AcDbHatch
 10
0.0
 20
0.0
 30
0.0
210
0.0
220
0.0
230
1.0
  2
SOLID
 70
1
 71
0
 91
1
 92
3
 72
0
 73
1
 93
8
 10
681886.0397051295
 20
829587.1209179858
 10
681884.6260233462
 20
829557.974561423
 10
681882.0
 20
829559.1
 10
681878.1
 20
829560.8999999999
 10
681874.2
 20
829563.2999999999
 10
681870.6
 20
829566.0
 10
681867.0
 20
829568.7
 10
681864.7570197391
 20
829570.9429802608
 97
0
 75
1
 76
1
 98
0
  0
LWPOLYLINE
  5
100
330
17
100
AcDbEntity
  8
RED_PLOTS_APPROX
 62
1
100
AcDbPolyline
 90
8
 70
1
 10
681886.0397051295
 20
829587.1209179858
 10
681884.6260233462
 20
829557.974561423
 10
681882.0
 20
829559.1
 10
681878.1
 20
829560.8999999999
 10
681874.2
 20
829563.2999999999
 10
681870.6
 20
829566.0
 10
681867.0
 20
829568.7
 10
681864.7570197391
 20
829570.9429802608
  0
TEXT
  5
101
330
17
100
AcDbEntity
  8
PLOT_NO
 62
7
100
AcDbText
 10
681878.2342735445
 20
829571.5354613824
 30
0.0
 40
5.0
  1
783
 72
1
 11
681878.2342735445
 21
829571.5354613824
 31
0.0
100
AcDbText
 73
2
  0
HATCH
  5
102
330
17
100
AcDbEntity
  8
RED_PLOTS
 62
1
100
AcDbHatch
 10
0.0
 20
0.0
 30
0.0
210
0.0
220
0.0
230
1.0
  2
SOLID
 70
1
 71
0
 91
1
 92
3
 72
0
 73
1
 93
6
 10
681910.35
 20
829681.35
 10
681928.6637366244
 20
829678.5903958511
 10
681924.0056938444
 20
829647.9374691693
 10
681905.7117466088
 20
829650.6748846315
 10
681910.5
 20
829681.2
 10
681910.3314943425
 20
829681.2276238783
 97
0
 75
1
 76
1
 98
0
  0
LWPOLYLINE
  5
103
330
17
100
AcDbEntity
  8
RED_PLOTS
 62
1
100
AcDbPolyline
 90
6
 70
1
 10
681910.35
 20
829681.35
 10
681928.6637366244
 20
829678.5903958511
 10
681924.0056938444
 20
829647.9374691693
 10
681905.7117466088
 20
829650.6748846315
 10
681910.5
 20
829681.2
 10
681910.3314943425
 20
829681.2276238783
  0
TEXT
  5
104
330
17
100
AcDbEntity
  8
PLOT_NO
 62
7
100
AcDbText
 10
681917.2208158538
 20
829664.6119758892
 30
0.0
 40
5.0
  1
793
 72
1
 11
681917.2208158538
 21
829664.6119758892
 31
0.0
100
AcDbText
 73
2
  0
HATCH
  5
105
330
17
100
AcDbEntity
  8
RED_PLOTS
 62
1
100
AcDbHatch
 10
0.0
 20
0.0
 30
0.0
210
0.0
220
0.0
230
1.0
  2
SOLID
 70
1
 71
0
 91
1
 92
3
 72
0
 73
1
 93
4
 10
682028.8449057278
 20
829639.8234532801
 10
682026.283163485
 20
829622.702475958
 10
681995.6518041237
 20
829627.2070876288
 10
681998.2259166962
 20
829644.4536418654
 97
0
 75
1
 76
1
 98
0
  0
LWPOLYLINE
  5
106
330
17
100
AcDbEntity
  8
RED_PLOTS
 62
1
100
AcDbPolyline
 90
4
 70
1
 10
682028.8449057278
 20
829639.8234532801
 10
682026.283163485
 20
829622.702475958
 10
681995.6518041237
 20
829627.2070876288
 10
681998.2259166962
 20
829644.4536418654
  0
TEXT
  5
107
330
17
100
AcDbEntity
  8
PLOT_NO
 62
7
100
AcDbText
 10
682012.2329793739
 20
829633.5497180532
 30
0.0
 40
5.0
  1
803
 72
1
 11
682012.2329793739
 21
829633.5497180532
 31
0.0
100
AcDbText
 73
2
  0
HATCH
  5
108
330
17
100
AcDbEntity
  8
RED_PLOTS_APPROX
 62
1
100
AcDbHatch
 10
0.0
 20
0.0
 30
0.0
210
0.0
220
0.0
230
1.0
  2
SOLID
 70
1
 71
0
 91
1
 92
3
 72
0
 73
1
 93
7
 10
681974.5776827687
 20
829488.0476414327
 10
681975.2999999999
 20
829491.8999999999
 10
681975.9849875749
 20
829496.3866686156
 10
681978.68722409
 20
829514.0863177897
 10
682009.2
 20
829509.2999999999
 10
682010.7
 20
829518.6
 10
682006.9532563563
 20
829493.7352467282
 97
0
 75
1
 76
1
 98
0
  0
LWPOLYLINE
  5
109
330
17
100
AcDbEntity
  8
RED_PLOTS_APPROX
 62
1
100
AcDbPolyline
 90
7
 70
1
 10
681974.5776827687
 20
829488.0476414327
 10
681975.2999999999
 20
829491.8999999999
 10
681975.9849875749
 20
829496.3866686156
 10
681978.68722409
 20
829514.0863177897
 10
682009.2
 20
829509.2999999999
 10
682010.7
 20
829518.6
 10
682006.9532563563
 20
829493.7352467282
  0
TEXT
  5
10A
330
17
100
AcDbEntity
  8
PLOT_NO
 62
7
100
AcDbText
 10
681991.1009661389
 20
829501.2774906473
 30
0.0
 40
5.0
  1
817
 72
1
 11
681991.1009661389
 21
829501.2774906473
 31
0.0
100
AcDbText
 73
2
  0
HATCH
  5
10B
330
17
100
AcDbEntity
  8
RED_PLOTS_APPROX
 62
1
100
AcDbHatch
 10
0.0
 20
0.0
 30
0.0
210
0.0
220
0.0
230
1.0
  2
SOLID
 70
1
 71
0
 91
1
 92
3
 72
0
 73
1
 93
11
 10
681936.2793056294
 20
829478.3110278812
 10
681937.2
 20
829479.6
 10
681938.7
 20
829481.7
 10
681940.2
 20
829484.1
 10
681941.4
 20
829486.5
 10
681942.6
 20
829488.8999999999
 10
681943.1327791946
 20
829490.3207445189
 10
681974.7164952309
 20
829489.4090566826
 10
681974.4
 20
829487.3999999999
 10
681956.5771834994
 20
829465.9316073968
 10
681954.0380617124
 20
829462.8731197899
 97
0
 75
1
 76
1
 98
0
  0
LWPOLYLINE
  5
10C
330
17
100
AcDbEntity
  8
RED_PLOTS_APPROX
 62
1
100
AcDbPolyline
 90
11
 70
1
 10
681936.2793056294
 20
829478.3110278812
 10
681937.2
 20
829479.6
 10
681938.7
 20
829481.7
 10
681940.2
 20
829484.1
 10
681941.4
 20
829486.5
 10
681942.6
 20
829488.8999999999
 10
681943.1327791946
 20
829490.3207445189
 10
681974.7164952309
 20
829489.4090566826
 10
681974.4
 20
829487.3999999999
 10
681956.5771834994
 20
829465.9316073968
 10
681954.0380617124
 20
829462.8731197899
  0
TEXT
  5
10D
330
17
100
AcDbEntity
  8
PLOT_NO
 62
7
100
AcDbText
 10
681954.3072594673
 20
829479.8311924221
 30
0.0
 40
5.0
  1
820
 72
1
 11
681954.3072594673
 21
829479.8311924221
 31
0.0
100
AcDbText
 73
2
  0
HATCH
  5
10E
330
17
100
AcDbEntity
  8
RED_PLOTS
 62
1
100
AcDbHatch
 10
0.0
 20
0.0
 30
0.0
210
0.0
220
0.0
230
1.0
  2
SOLID
 70
1
 71
0
 91
1
 92
3
 72
0
 73
1
 93
25
 10
681825.5951593752
 20
829388.1081285962
 10
681840.5313175785
 20
829397.0588410489
 10
681851.1
 20
829377.2999999999
 10
681851.4
 20
829376.7
 10
681851.7
 20
829376.1
 10
681852.0
 20
829375.5
 10
681852.0
 20
829374.8999999999
 10
681852.2999999999
 20
829374.2999999999
 10
681852.2999999999
 20
829373.3999999999
 10
681852.2999999999
 20
829372.7999999999
 10
681852.2999999999
 20
829372.2
 10
681852.2999999999
 20
829371.6
 10
681852.0
 20
829371.0
 10
681852.0
 20
829370.3999999999
 10
681851.7
 20
829369.7999999999
 10
681851.4
 20
829369.2
 10
681851.1
 20
829368.6
 10
681850.7999999999
 20
829368.0
 10
681850.2
 20
829367.3999999999
 10
681849.9
 20
829366.7999999999
 10
681849.6
 20
829366.5
 10
681849.0
 20
829365.8999999999
 10
681848.4
 20
829365.6
 10
681847.7999999999
 20
829365.2999999999
 10
681841.4484481157
 20
829361.4865682584
 97
0
 75
1
 76
1
 98
0
  0
LWPOLYLINE
  5
10F
330
17
100
AcDbEntity
  8
RED_PLOTS
 62
1
100
AcDbPolyline
 90
25
 70
1
 10
681825.5951593752
 20
829388.1081285962
 10
681840.5313175785
 20
829397.0588410489
 10
681851.1
 20
829377.2999999999
 10
681851.4
 20
829376.7
 10
681851.7
 20
829376.1
 10
681852.0
 20
829375.5
 10
681852.0
 20
829374.8999999999
 10
681852.2999999999
 20
829374.2999999999
 10
681852.2999999999
 20
829373.3999999999
 10
681852.2999999999
 20
829372.7999999999
 10
681852.2999999999
 20
829372.2
 10
681852.2999999999
 20
829371.6
 10
681852.0
 20
829371.0
 10
681852.0
 20
829370.3999999999
 10
681851.7
 20
829369.7999999999
 10
681851.4
 20
829369.2
 10
681851.1
 20
829368.6
 10
681850.7999999999
 20
829368.0
 10
681850.2
 20
829367.3999999999
 10
681849.9
 20
829366.7999999999
 10
681849.6
 20
829366.5
 10
681849.0
 20
829365.8999999999
 10
681848.4
 20
829365.6
 10
681847.7999999999
 20
829365.2999999999
 10
681841.4484481157
 20
829361.4865682584
  0
TEXT
  5
110
330
17
100
AcDbEntity
  8
PLOT_NO
 62
7
100
AcDbText
 10
681840.2336253561
 20
829379.5317910461
 30
0.0
 40
5.0
  1
836
 72
1
 11
681840.2336253561
 21
829379.5317910461
 31
0.0
100
AcDbText
 73
2
  0
HATCH
  5
111
330
17
100
AcDbEntity
  8
RED_PLOTS_APPROX
 62
1
100
AcDbHatch
 10
0.0
 20
0.0
 30
0.0
210
0.0
220
0.0
230
1.0
  2
SOLID
 70
1
 71
0
 91
1
 92
3
 72
0
 73
1
 93
5
 10
681633.3729284267
 20
829451.498620459
 10
681636.0
 20
829469.1
 10
681666.8737555603
 20
829464.4312857445
 10
681664.1023819651
 20
829446.6153126329
 10
681661.5232710254
 20
829430.035313735
 97
0
 75
1
 76
1
 98
0
  0
LWPOLYLINE
  5
112
330
17
100
AcDbEntity
  8
RED_PLOTS_APPROX
 62
1
100
AcDbPolyline
 90
5
 70
1
 10
681633.3729284267
 20
829451.498620459
 10
681636.0
 20
829469.1
 10
681666.8737555603
 20
829464.4312857445
 10
681664.1023819651
 20
829446.6153126329
 10
681661.5232710254
 20
829430.035313735
  0
TEXT
  5
113
330
17
100
AcDbEntity
  8
PLOT_NO
 62
7
100
AcDbText
 10
681651.0384711231
 20
829453.0704811666
 30
0.0
 40
5.0
  1
881
 72
1
 11
681651.0384711231
 21
829453.0704811666
 31
0.0
100
AcDbText
 73
2
  0
HATCH
  5
114
330
17
100
AcDbEntity
  8
RED_PLOTS
 62
1
100
AcDbHatch
 10
0.0
 20
0.0
 30
0.0
210
0.0
220
0.0
230
1.0
  2
SOLID
 70
1
 71
0
 91
1
 92
3
 72
0
 73
1
 93
10
 10
682076.5588035157
 20
829584.2996597675
 10
682076.4
 20
829581.6
 10
682076.7
 20
829576.5
 10
682077.2999999999
 20
829571.3999999999
 10
682078.4584832549
 20
829566.4764461666
 10
682048.2
 20
829559.1
 10
682046.7
 20
829566.2999999999
 10
682045.7999999999
 20
829573.7999999999
 10
682045.5
 20
829581.2999999999
 10
682045.6677406906
 20
829585.493517268
 97
0
 75
1
 76
1
 98
0
  0
LWPOLYLINE
  5
115
330
17
100
AcDbEntity
  8
RED_PLOTS
 62
1
100
AcDbPolyline
 90
10
 70
1
 10
682076.5588035157
 20
829584.2996597675
 10
682076.4
 20
829581.6
 10
682076.7
 20
829576.5
 10
682077.2999999999
 20
829571.3999999999
 10
682078.4584832549
 20
829566.4764461666
 10
682048.2
 20
829559.1
 10
682046.7
 20
829566.2999999999
 10
682045.7999999999
 20
829573.7999999999
 10
682045.5
 20
829581.2999999999
 10
682045.6677406906
 20
829585.493517268
  0
TEXT
  5
116
330
17
100
AcDbEntity
  8
PLOT_NO
 62
7
100
AcDbText
 10
682060.6871454811
 20
829573.6766844866
 30
0.0
 40
5.0
  1
914
 72
1
 11
682060.6871454811
 21
829573.6766844866
 31
0.0
100
AcDbText
 73
2
  0
HATCH
  5
117
330
17
100
AcDbEntity
  8
RED_PLOTS_APPROX
 62
1
100
AcDbHatch
 10
0.0
 20
0.0
 30
0.0
210
0.0
220
0.0
230
1.0
  2
SOLID
 70
1
 71
0
 91
1
 92
3
 72
0
 73
1
 93
11
 10
682183.8109793189
 20
829526.5527448297
 10
682186.7999999999
 20
829527.2999999999
 10
682190.1
 20
829528.7999999999
 10
682193.7
 20
829530.2999999999
 10
682196.9455752212
 20
829531.7752614642
 10
682211.7
 20
829504.7999999999
 10
682206.9
 20
829502.1
 10
682202.1
 20
829500.0
 10
682197.0
 20
829498.2
 10
682191.9
 20
829496.3999999999
 10
682174.7260841819
 20
829491.6771731499
 97
0
 75
1
 76
1
 98
0
  0
LWPOLYLINE
  5
118
330
17
100
AcDbEntity
  8
RED_PLOTS_APPROX
 62
1
100
AcDbPolyline
 90
11
 70
1
 10
682183.8109793189
 20
829526.5527448297
 10
682186.7999999999
 20
829527.2999999999
 10
682190.1
 20
829528.7999999999
 10
682193.7
 20
829530.2999999999
 10
682196.9455752212
 20
829531.7752614642
 10
682211.7
 20
829504.7999999999
 10
682206.9
 20
829502.1
 10
682202.1
 20
829500.0
 10
682197.0
 20
829498.2
 10
682191.9
 20
829496.3999999999
 10
682174.7260841819
 20
829491.6771731499
  0
TEXT
  5
119
330
17
100
AcDbEntity
  8
PLOT_NO
 62
7
100
AcDbText
 10
682192.2153455224
 20
829510.6901398919
 30
0.0
 40
5.0
  1
928
 72
1
 11
682192.2153455224
 21
829510.6901398919
 31
0.0
100
AcDbText
 73
2
  0
HATCH
  5
11A
330
17
100
AcDbEntity
  8
RED_PLOTS
 62
1
100
AcDbHatch
 10
0.0
 20
0.0
 30
0.0
210
0.0
220
0.0
230
1.0
  2
SOLID
 70
1
 71
0
 91
1
 92
3
 72
0
 73
1
 93
8
 10
682189.5
 20
829564.5
 10
682191.0
 20
829566.2999999999
 10
682192.5
 20
829568.3999999999
 10
682194.0
 20
829570.2
 10
682194.5090909093
 20
829571.0909090912
 10
682195.2
 20
829572.0
 10
682219.197873999
 20
829558.534526256
 10
682211.1507740633
 20
829542.6999102535
 97
0
 75
1
 76
1
 98
0
  0
LWPOLYLINE
  5
11B
330
17
100
AcDbEntity
  8
RED_PLOTS
 62
1
100
AcDbPolyline
 90
8
 70
1
 10
682189.5
 20
829564.5
 10
682191.0
 20
829566.2999999999
 10
682192.5
 20
829568.3999999999
 10
682194.0
 20
829570.2
 10
682194.5090909093
 20
829571.0909090912
 10
682195.2
 20
829572.0
 10
682219.197873999
 20
829558.534526256
 10
682211.1507740633
 20
829542.6999102535
  0
TEXT
  5
11C
330
17
100
AcDbEntity
  8
PLOT_NO
 62
7
100
AcDbText
 10
682204.8728655627
 20
829558.4665595061
 30
0.0
 40
5.0
  1
929
 72
1
 11
682204.8728655627
 21
829558.4665595061
 31
0.0
100
AcDbText
 73
2
  0
HATCH
  5
11D
330
17
100
AcDbEntity
  8
RED_PLOTS_APPROX
 62
1
100
AcDbHatch
 10
0.0
 20
0.0
 30
0.0
210
0.0
220
0.0
230
1.0
  2
SOLID
 70
1
 71
0
 91
1
 92
3
 72
0
 73
1
 93
27
 10
682145.7890149385
 20
829645.7937026845
 10
682132.2
 20
829647.8999999999
 10
682135.5
 20
829669.5
 10
682135.7999999999
 20
829670.1
 10
682135.7999999999
 20
829670.7
 10
682136.1
 20
829671.2999999999
 10
682136.4
 20
829671.8999999999
 10
682136.7
 20
829672.5
 10
682137.0
 20
829673.1
 10
682137.2999999999
 20
829673.7
 10
682137.6
 20
829674.2999999999
 10
682138.2
 20
829674.6
 10
682138.5
 20
829675.2
 10
682139.1
 20
829675.5
 10
682139.7
 20
829675.7999999999
 10
682140.2999999999
 20
829676.1
 10
682140.9
 20
829676.3999999999
 10
682141.5
 20
829676.7
 10
682142.1
 20
829677.0
 10
682142.7
 20
829677.0
 10
682143.2999999999
 20
829677.0
 10
682143.9
 20
829677.2999999999
 10
682144.5
 20
829677.2999999999
 10
682145.1
 20
829677.2999999999
 10
682145.7
 20
829677.0
 10
682156.7779546846
 20
829675.3500918555
 10
682157.0715246312
 20
829675.3063686719
 97
0
 75
1
 76
1
 98
0
  0
LWPOLYLINE
  5
11E
330
17
100
AcDbEntity
  8
RED_PLOTS_APPROX
 62
1
100
AcDbPolyline
 90
27
 70
1
 10
682145.7890149385
 20
829645.7937026845
 10
682132.2
 20
829647.8999999999
 10
682135.5
 20
829669.5
 10
682135.7999999999
 20
829670.1
 10
682135.7999999999
 20
829670.7
 10
682136.1
 20
829671.2999999999
 10
682136.4
 20
829671.8999999999
 10
682136.7
 20
829672.5
 10
682137.0
 20
829673.1
 10
682137.2999999999
 20
829673.7
 10
682137.6
 20
829674.2999999999
 10
682138.2
 20
829674.6
 10
682138.5
 20
829675.2
 10
682139.1
 20
829675.5
 10
682139.7
 20
829675.7999999999
 10
682140.2999999999
 20
829676.1
 10
682140.9
 20
829676.3999999999
 10
682141.5
 20
829676.7
 10
682142.1
 20
829677.0
 10
682142.7
 20
829677.0
 10
682143.2999999999
 20
829677.0
 10
682143.9
 20
829677.2999999999
 10
682144.5
 20
829677.2999999999
 10
682145.1
 20
829677.2999999999
 10
682145.7
 20
829677.0
 10
682156.7779546846
 20
829675.3500918555
 10
682157.0715246312
 20
829675.3063686719
  0
TEXT
  5
11F
330
17
100
AcDbEntity
  8
PLOT_NO
 62
7
100
AcDbText
 10
682143.403792683
 20
829662.3738653327
 30
0.0
 40
5.0
  1
945
 72
1
 11
682143.403792683
 21
829662.3738653327
 31
0.0
100
AcDbText
 73
2
  0
HATCH
  5
120
330
17
100
AcDbEntity
  8
RED_PLOTS_APPROX
 62
1
100
AcDbHatch
 10
0.0
 20
0.0
 30
0.0
210
0.0
220
0.0
230
1.0
  2
SOLID
 70
1
 71
0
 91
1
 92
3
 72
0
 73
1
 93
8
 10
682097.2572615788
 20
829725.7546673517
 10
682095.1251115074
 20
829729.6509629007
 10
682098.0
 20
829729.2
 10
682098.0225497421
 20
829729.3465733235
 10
682098.180385852
 20
829729.3225884244
 10
682101.0455519828
 20
829748.5430778849
 10
682131.5758944397
 20
829743.9036630997
 10
682128.7680101227
 20
829725.2695217236
 97
0
 75
1
 76
1
 98
0
  0
LWPOLYLINE
  5
121
330
17
100
AcDbEntity
  8
RED_PLOTS_APPROX
 62
1
100
AcDbPolyline
 90
8
 70
1
 10
682097.2572615788
 20
829725.7546673517
 10
682095.1251115074
 20
829729.6509629007
 10
682098.0
 20
829729.2
 10
682098.0225497421
 20
829729.3465733235
 10
682098.180385852
 20
829729.3225884244
 10
682101.0455519828
 20
829748.5430778849
 10
682131.5758944397
 20
829743.9036630997
 10
682128.7680101227
 20
829725.2695217236
  0
TEXT
  5
122
330
17
100
AcDbEntity
  8
PLOT_NO
 62
7
100
AcDbText
 10
682114.0823533926
 20
829735.8374782279
 30
0.0
 40
5.0
  1
948
 72
1
 11
682114.0823533926
 21
829735.8374782279
 31
0.0
100
AcDbText
 73
2
  0
HATCH
  5
123
330
17
100
AcDbEntity
  8
RED_PLOTS
 62
1
100
AcDbHatch
 10
0.0
 20
0.0
 30
0.0
210
0.0
220
0.0
230
1.0
  2
SOLID
 70
1
 71
0
 91
1
 92
3
 72
0
 73
1
 93
5
 10
682103.9325348587
 20
829767.9099213443
 10
682102.4999999986
 20
829758.2999999906
 10
682101.0
 20
829748.7
 10
682070.4
 20
829753.2
 10
682073.4
 20
829772.3999999999
 97
0
 75
1
 76
1
 98
0
  0
LWPOLYLINE
  5
124
330
17
100
AcDbEntity
  8
RED_PLOTS
 62
1
100
AcDbPolyline
 90
5
 70
1
 10
682103.9325348587
 20
829767.9099213443
 10
682102.4999999986
 20
829758.2999999906
 10
682101.0
 20
829748.7
 10
682070.4
 20
829753.2
 10
682073.4
 20
829772.3999999999
  0
TEXT
  5
125
330
17
100
AcDbEntity
  8
PLOT_NO
 62
7
100
AcDbText
 10
682087.191023119
 20
829760.5477094935
 30
0.0
 40
5.0
  1
951
 72
1
 11
682087.191023119
 21
829760.5477094935
 31
0.0
100
AcDbText
 73
2
  0
HATCH
  5
126
330
17
100
AcDbEntity
  8
RED_PLOTS_APPROX
 62
1
100
AcDbHatch
 10
0.0
 20
0.0
 30
0.0
210
0.0
220
0.0
230
1.0
  2
SOLID
 70
1
 71
0
 91
1
 92
3
 72
0
 73
1
 93
5
 10
682326.757614782
 20
829707.0404814039
 10
682303.1381799423
 20
829716.5713196214
 10
682306.2967062881
 20
829737.2853761222
 10
682336.9162007604
 20
829732.6551111045
 10
682334.3222244313
 20
829715.6619192343
 97
0
 75
1
 76
1
 98
0
  0
LWPOLYLINE
  5
127
330
17
100
AcDbEntity
  8
RED_PLOTS_APPROX
 62
1
100
AcDbPolyline
 90
5
 70
1
 10
682326.757614782
 20
829707.0404814039
 10
682303.1381799423
 20
829716.5713196214
 10
682306.2967062881
 20
829737.2853761222
 10
682336.9162007604
 20
829732.6551111045
 10
682334.3222244313
 20
829715.6619192343
  0
TEXT
  5
128
330
17
100
AcDbEntity
  8
PLOT_NO
 62
7
100
AcDbText
 10
682319.9905873566
 20
829723.2237800935
 30
0.0
 40
5.0
  1
976
 72
1
 11
682319.9905873566
 21
829723.2237800935
 31
0.0
100
AcDbText
 73
2
  0
HATCH
  5
129
330
17
100
AcDbEntity
  8
RED_PLOTS_APPROX
 62
1
100
AcDbHatch
 10
0.0
 20
0.0
 30
0.0
210
0.0
220
0.0
230
1.0
  2
SOLID
 70
1
 71
0
 91
1
 92
3
 72
0
 73
1
 93
4
 10
683498.6324402964
 20
829450.6262879245
 10
683489.8761161482
 20
829452.8551704349
 10
683495.4
 20
829475.1
 10
683513.5396092106
 20
829470.5650976973
 97
0
 75
1
 76
1
 98
0
  0
LWPOLYLINE
  5
12A
330
17
100
AcDbEntity
  8
RED_PLOTS_APPROX
 62
1
100
AcDbPolyline
 90
4
 70
1
 10
683498.6324402964
 20
829450.6262879245
 10
683489.8761161482
 20
829452.8551704349
 10
683495.4
 20
829475.1
 10
683513.5396092106
 20
829470.5650976973
  0
TEXT
  5
12B
330
17
100
AcDbEntity
  8
PLOT_NO
 62
7
100
AcDbText
 10
683499.9571050801
 20
829463.5093670273
 30
0.0
 40
5.0
  1
1186
 72
1
 11
683499.9571050801
 21
829463.5093670273
 31
0.0
100
AcDbText
 73
2
  0
HATCH
  5
12C
330
17
100
AcDbEntity
  8
RED_PLOTS_APPROX
 62
1
100
AcDbHatch
 10
0.0
 20
0.0
 30
0.0
210
0.0
220
0.0
230
1.0
  2
SOLID
 70
1
 71
0
 91
1
 92
3
 72
0
 73
1
 93
5
 10
684174.0346141368
 20
829336.0906380037
 10
684171.7755676954
 20
829327.1556035712
 10
684167.611203698
 20
829310.6846116416
 10
684141.2999999999
 20
829317.2999999999
 10
684143.6620896835
 20
829326.7483587338
 97
0
 75
1
 76
1
 98
0
  0
LWPOLYLINE
  5
12D
330
17
100
AcDbEntity
  8
RED_PLOTS_APPROX
 62
1
100
AcDbPolyline
 90
5
 70
1
 10
684174.0346141368
 20
829336.0906380037
 10
684171.7755676954
 20
829327.1556035712
 10
684167.611203698
 20
829310.6846116416
 10
684141.2999999999
 20
829317.2999999999
 10
684143.6620896835
 20
829326.7483587338
  0
TEXT
  5
12E
330
17
100
AcDbEntity
  8
PLOT_NO
 62
7
100
AcDbText
 10
684158.8148937834
 20
829322.8119513531
 30
0.0
 40
5.0
  1
1286
 72
1
 11
684158.8148937834
 21
829322.8119513531
 31
0.0
100
AcDbText
 73
2
  0
ENDSEC
  0
SECTION
  2
OBJECTS
  0
DICTIONARY
  5
A
330
0
100
AcDbDictionary
281
1
  3
ACAD_COLOR
350
B
  3
ACAD_GROUP
350
C
  3
ACAD_LAYOUT
350
D
  3
ACAD_MATERIAL
350
E
  3
ACAD_MLEADERSTYLE
350
F
  3
ACAD_MLINESTYLE
350
10
  3
ACAD_PLOTSETTINGS
350
11
  3
ACAD_PLOTSTYLENAME
350
12
  3
ACAD_SCALELIST
350
14
  3
ACAD_TABLESTYLE
350
15
  3
ACAD_VISUALSTYLE
350
16
  3
EZDXF_META
350
2D
  0
DICTIONARY
  5
B
330
A
100
AcDbDictionary
281
1
  0
DICTIONARY
  5
C
330
A
100
AcDbDictionary
281
1
  0
DICTIONARY
  5
D
330
A
100
AcDbDictionary
281
1
  3
Model
350
1A
  3
Layout1
350
1E
  0
DICTIONARY
  5
E
330
A
100
AcDbDictionary
281
1
  3
ByBlock
350
1F
  3
ByLayer
350
20
  3
Global
350
21
  0
DICTIONARY
  5
F
330
A
100
AcDbDictionary
281
1
  3
Standard
350
2C
  0
DICTIONARY
  5
10
330
A
100
AcDbDictionary
281
1
  3
Standard
350
22
  0
DICTIONARY
  5
11
330
A
100
AcDbDictionary
281
1
  0
ACDBDICTIONARYWDFLT
  5
12
330
A
100
AcDbDictionary
281
1
  3
Normal
350
13
100
AcDbDictionaryWithDefault
340
13
  0
ACDBPLACEHOLDER
  5
13
330
12
  0
DICTIONARY
  5
14
330
A
100
AcDbDictionary
281
1
  0
DICTIONARY
  5
15
330
A
100
AcDbDictionary
281
1
  0
DICTIONARY
  5
16
330
A
100
AcDbDictionary
281
1
  3
2dWireframe
350
5A
  3
Basic
350
5B
  3
Brighten
350
5C
  3
ColorChange
350
5D
  3
Conceptual
350
5E
  3
Dim
350
5F
  3
EdgeColorOff
350
60
  3
Facepattern
350
61
  3
Flat
350
62
  3
FlatWithEdges
350
63
  3
Gouraud
350
64
  3
GouraudWithEdges
350
65
  3
Hidden
350
66
  3
JitterOff
350
67
  3
Linepattern
350
68
  3
Modeling
350
69
  3
OverhangOff
350
6A
  3
Realistic
350
6B
  3
Shaded
350
6C
  3
Shaded with edges
350
6D
  3
Shades of Gray
350
6E
  3
Sketchy
350
6F
  3
Thicken
350
70
  3
Wireframe
350
71
  3
X-Ray
350
72
  0
LAYOUT
  5
1A
330
D
100
AcDbPlotSettings
  1

  4
A3
  6

 40
7.5
 41
20.0
 42
7.5
 43
20.0
 44
420.0
 45
297.0
 46
0.0
 47
0.0
 48
0.0
 49
0.0
140
0.0
141
0.0
142
1.0
143
1.0
 70
1024
 72
1
 73
0
 74
5
  7

 75
16
 76
0
 77
2
 78
300
147
1.0
148
0.0
149
0.0
100
AcDbLayout
  1
Model
 70
1
 71
0
 10
0.0
 20
0.0
 11
420.0
 21
297.0
 12
0.0
 22
0.0
 32
0.0
 14
1e+20
 24
1e+20
 34
1e+20
 15
-1e+20
 25
-1e+20
 35
-1e+20
146
0.0
 13
0.0
 23
0.0
 33
0.0
 16
1.0
 26
0.0
 36
0.0
 17
0.0
 27
1.0
 37
0.0
 76
1
330
17
  0
LAYOUT
  5
1E
330
D
100
AcDbPlotSettings
  1

  4
A3
  6

 40
7.5
 41
20.0
 42
7.5
 43
20.0
 44
420.0
 45
297.0
 46
0.0
 47
0.0
 48
0.0
 49
0.0
140
0.0
141
0.0
142
1.0
143
1.0
 70
0
 72
1
 73
0
 74
5
  7

 75
16
 76
0
 77
2
 78
300
147
1.0
148
0.0
149
0.0
100
AcDbLayout
  1
Layout1
 70
1
 71
1
 10
0.0
 20
0.0
 11
420.0
 21
297.0
 12
0.0
 22
0.0
 32
0.0
 14
1e+20
 24
1e+20
 34
1e+20
 15
-1e+20
 25
-1e+20
 35
-1e+20
146
0.0
 13
0.0
 23
0.0
 33
0.0
 16
1.0
 26
0.0
 36
0.0
 17
0.0
 27
1.0
 37
0.0
 76
1
330
1B
  0
MATERIAL
  5
1F
102
{ACAD_REACTORS
330
E
102
}
330
E
100
AcDbMaterial
  1
ByBlock
  2

 70
0
 40
1.0
 71
1
 41
1.0
 91
-1023410177
 42
1.0
 72
1
  3

 73
1
 74
1
 75
1
 44
0.5
 73
0
 45
1.0
 46
1.0
 77
1
  4

 78
1
 79
1
170
1
 48
1.0
171
1
  6

172
1
173
1
174
1
140
1.0
141
1.0
175
1
  7

176
1
177
1
178
1
143
1.0
179
1
  8

270
1
271
1
272
1
145
1.0
146
1.0
273
1
  9

274
1
275
1
276
1
 42
1.0
 72
1
  3

 73
1
 74
1
 75
1
 94
63
  0
MATERIAL
  5
20
102
{ACAD_REACTORS
330
E
102
}
330
E
100
AcDbMaterial
  1
ByLayer
  2

 70
0
 40
1.0
 71
1
 41
1.0
 91
-1023410177
 42
1.0
 72
1
  3

 73
1
 74
1
 75
1
 44
0.5
 73
0
 45
1.0
 46
1.0
 77
1
  4

 78
1
 79
1
170
1
 48
1.0
171
1
  6

172
1
173
1
174
1
140
1.0
141
1.0
175
1
  7

176
1
177
1
178
1
143
1.0
179
1
  8

270
1
271
1
272
1
145
1.0
146
1.0
273
1
  9

274
1
275
1
276
1
 42
1.0
 72
1
  3

 73
1
 74
1
 75
1
 94
63
  0
MATERIAL
  5
21
102
{ACAD_REACTORS
330
E
102
}
330
E
100
AcDbMaterial
  1
Global
  2

 70
0
 40
1.0
 71
1
 41
1.0
 91
-1023410177
 42
1.0
 72
1
  3

 73
1
 74
1
 75
1
 44
0.5
 73
0
 45
1.0
 46
1.0
 77
1
  4

 78
1
 79
1
170
1
 48
1.0
171
1
  6

172
1
173
1
174
1
140
1.0
141
1.0
175
1
  7

176
1
177
1
178
1
143
1.0
179
1
  8

270
1
271
1
272
1
145
1.0
146
1.0
273
1
  9

274
1
275
1
276
1
 42
1.0
 72
1
  3

 73
1
 74
1
 75
1
 94
63
  0
MLINESTYLE
  5
22
102
{ACAD_REACTORS
330
10
102
}
330
10
100
AcDbMlineStyle
  2
Standard
 70
0
  3

 62
256
 51
90.0
 52
90.0
 71
2
 49
0.5
 62
256
  6
BYLAYER
 49
-0.5
 62
256
  6
BYLAYER
  0
MLEADERSTYLE
  5
2C
102
{ACAD_REACTORS
330
F
102
}
330
F
100
AcDbMLeaderStyle
179
2
170
2
171
1
172
0
 90
2
 40
0.0
 41
0.0
173
1
 91
-1056964608
 92
-2
290
1
 42
2.0
291
1
 43
8.0
  3
Standard
 44
4.0
300

342
29
174
1
175
1
176
0
178
1
 93
-1056964608
 45
4.0
292
0
297
0
 46
4.0
 94
-1056964608
 47
1.0
 49
1.0
140
1.0
294
1
141
0.0
177
0
142
1.0
295
0
296
0
143
3.75
271
0
272
9
273
9
  0
DICTIONARY
  5
2D
330
A
100
AcDbDictionary
280
1
281
1
  3
CREATED_BY_EZDXF
350
2E
  3
WRITTEN_BY_EZDXF
350
131
  0
DICTIONARYVAR
  5
2E
330
2D
100
DictionaryVariables
280
0
  1
1.4.4 @ 2026-10-03T23:41:01.330954+00:00
  0
VISUALSTYLE
  5
5A
102
{ACAD_REACTORS
330
16
102
}
330
16
100
AcDbVisualStyle
  2
2dWireframe
 70
4
177
3
291
0
 70
58
 90
2
176
1
 90
2
176
1
 90
0
176
1
 90
0
176
1
 40
0.6
176
1
 40
30.0
176
1
 62
7
420
16777215
176
1
 90
1
176
1
 90
4
176
1
 62
7
176
1
 62
257
176
1
 90
1
176
1
 90
1
176
1
 40
1.0
176
1
 90
8
176
1
 62
7
176
1
 40
1.0
176
1
 90
1
176
1
 90
6
176
1
 90
2
176
1
 62
7
176
1
 90
5
176
1
 90
0
176
1
 90
0
176
1
290
0
176
1
 90
1
176
1
 40
0.0
176
1
 90
0
176
1
290
1
176
1
290
1
176
1
290
0
176
1
290
0
176
1
290
0
176
1
290
0
176
1
290
0
176
1
290
0
176
1
290
0
176
1
 90
50
176
1
 40
0.0
176
1
 40
1.0
176
1
 90
0
176
1
 62
18
420
0
176
1
 90
50
176
1
 90
3
176
1
 62
5
420
255
176
1
290
0
176
1
 90
50
176
1
 90
50
176
1
 90
50
176
1
290
0
176
1
 90
50
176
1
 62
256
176
0
 40
1.0
176
0
 90
2
176
1
  1
strokes_ogs.tif
176
1
290
0
176
1
 40
1.0
176
1
 40
1.0
176
1
  0
VISUALSTYLE
  5
5B
102
{ACAD_REACTORS
330
16
102
}
330
16
100
AcDbVisualStyle
  2
Basic
 70
7
177
3
291
1
 70
58
 90
2
176
1
 90
2
176
1
 90
0
176
1
 90
1
176
1
 40
0.6
176
1
 40
30.0
176
1
 62
7
420
16777215
176
1
 90
1
176
1
 90
4
176
1
 62
7
176
1
 62
257
176
1
 90
1
176
1
 90
1
176
1
 40
1.0
176
1
 90
8
176
1
 62
7
176
1
 40
1.0
176
1
 90
1
176
1
 90
6
176
1
 90
2
176
1
 62
7
176
1
 90
5
176
1
 90
0
176
1
 90
0
176
1
290
0
176
1
 90
1
176
1
 40
0.0
176
1
 90
0
176
1
290
0
176
1
290
1
176
1
290
1
176
1
290
0
176
1
290
0
176
1
290
0
176
1
290
0
176
1
290
0
176
1
290
0
176
1
 90
50
176
1
 40
0.0
176
1
 40
1.0
176
1
 90
0
176
1
 62
18
420
0
176
1
 90
50
176
1
 90
3
176
1
 62
5
420
255
176
1
290
0
176
1
 90
50
176
1
 90
50
176
1
 90
50
176
1
290
0
176
1
 90
50
176
1
 62
256
176
0
 40
1.0
176
0
 90
2
176
1
  1
strokes_ogs.tif
176
1
290
0
176
1
 40
1.0
176
1
 40
1.0
176
1
  0
VISUALSTYLE
  5
5C
102
{ACAD_REACTORS
330
16
102
}
330
16
100
AcDbVisualStyle
  2
Brighten
 70
12
177
3
291
1
 70
58
 90
2
176
1
 90
2
176
1
 90
0
176
1
 90
2
176
1
 40
0.6
176
1
 40
30.0
176
1
 62
7
420
16777215
176
1
 90
1
176
1
 90
4
176
1
 62
7
176
1
 62
257
176
1
 90
1
176
1
 90
1
176
1
 40
1.0
176
1
 90
8
176
1
 62
7
176
1
 40
1.0
176
1
 90
1
176
1
 90
6
176
1
 90
2
176
1
 62
7
176
1
 90
5
176
1
 90
0
176
1
 90
0
176
1
290
0
176
1
 90
1
176
1
 40
0.0
176
1
 90
0
176
1
290
0
176
1
290
1
176
1
290
1
176
1
290
0
176
1
290
0
176
1
290
0
176
1
290
0
176
1
290
0
176
1
290
0
176
1
 90
50
176
1
 40
0.0
176
1
 40
1.0
176
1
 90
0
176
1
 62
18
420
0
176
1
 90
50
176
1
 90
3
176
1
 62
5
420
255
176
1
290
0
176
1
 90
50
176
1
 90
50
176
1
 90
50
176
1
290
0
176
1
 90
50
176
1
 62
256
176
0
 40
1.0
176
0
 90
2
176
1
  1
strokes_ogs.tif
176
1
290
0
176
1
 40
1.0
176
1
 40
1.0
176
1
  0
VISUALSTYLE
  5
5D
102
{ACAD_REACTORS
330
16
102
}
330
16
100
AcDbVisualStyle
  2
ColorChange
 70
16
177
3
291
1
 70
58
 90
2
176
1
 90
2
176
1
 90
0
176
1
 90
2
176
1
 40
0.6
176
1
 40
30.0
176
1
 62
7
420
16777215
176
1
 90
1
176
1
 90
4
176
1
 62
7
176
1
 62
257
176
1
 90
1
176
1
 90
1
176
1
 40
1.0
176
1
 90
8
176
1
 62
7
176
1
 40
1.0
176
1
 90
1
176
1
 90
6
176
1
 90
2
176
1
 62
7
176
1
 90
5
176
1
 90
0
176
1
 90
0
176
1
290
0
176
1
 90
1
176
1
 40
0.0
176
1
 90
0
176
1
290
0
176
1
290
1
176
1
290
1
176
1
290
0
176
1
290
0
176
1
290
0
176
1
290
0
176
1
290
0
176
1
290
0
176
1
 90
50
176
1
 40
0.0
176
1
 40
1.0
176
1
 90
0
176
1
 62
18
420
0
176
1
 90
50
176
1
 90
3
176
1
 62
5
420
255
176
1
290
0
176
1
 90
50
176
1
 90
50
176
1
 90
50
176
1
290
0
176
1
 90
50
176
1
 62
256
176
0
 40
1.0
176
0
 90
2
176
1
  1
strokes_ogs.tif
176
1
290
0
176
1
 40
1.0
176
1
 40
1.0
176
1
  0
VISUALSTYLE
  5
5E
102
{ACAD_REACTORS
330
16
102
}
330
16
100
AcDbVisualStyle
  2
Conceptual
 70
9
177
3
291
0
 70
58
 90
2
176
1
 90
2
176
1
 90
0
176
1
 90
3
176
1
 40
0.6
176
1
 40
30.0
176
1
 62
7
420
16777215
176
1
 90
1
176
1
 90
4
176
1
 62
7
176
1
 62
257
176
1
 90
1
176
1
 90
1
176
1
 40
1.0
176
1
 90
8
176
1
 62
7
176
1
 40
1.0
176
1
 90
1
176
1
 90
6
176
1
 90
2
176
1
 62
7
176
1
 90
5
176
1
 90
0
176
1
 90
0
176
1
290
0
176
1
 90
1
176
1
 40
0.0
176
1
 90
0
176
1
290
0
176
1
290
1
176
1
290
1
176
1
290
0
176
1
290
0
176
1
290
0
176
1
290
0
176
1
290
0
176
1
290
0
176
1
 90
50
176
1
 40
0.0
176
1
 40
1.0
176
1
 90
0
176
1
 62
18
420
0
176
1
 90
50
176
1
 90
3
176
1
 62
5
420
255
176
1
290
0
176
1
 90
50
176
1
 90
50
176
1
 90
50
176
1
290
0
176
1
 90
50
176
1
 62
256
176
0
 40
1.0
176
0
 90
2
176
1
  1
strokes_ogs.tif
176
1
290
0
176
1
 40
1.0
176
1
 40
1.0
176
1
  0
VISUALSTYLE
  5
5F
102
{ACAD_REACTORS
330
16
102
}
330
16
100
AcDbVisualStyle
  2
Dim
 70
11
177
3
291
1
 70
58
 90
2
176
1
 90
2
176
1
 90
0
176
1
 90
2
176
1
 40
0.6
176
1
 40
30.0
176
1
 62
7
420
16777215
176
1
 90
1
176
1
 90
4
176
1
 62
7
176
1
 62
257
176
1
 90
1
176
1
 90
1
176
1
 40
1.0
176
1
 90
8
176
1
 62
7
176
1
 40
1.0
176
1
 90
1
176
1
 90
6
176
1
 90
2
176
1
 62
7
176
1
 90
5
176
1
 90
0
176
1
 90
0
176
1
290
0
176
1
 90
1
176
1
 40
0.0
176
1
 90
0
176
1
290
0
176
1
290
1
176
1
290
1
176
1
290
0
176
1
290
0
176
1
290
0
176
1
290
0
176
1
290
0
176
1
290
0
176
1
 90
50
176
1
 40
0.0
176
1
 40
1.0
176
1
 90
0
176
1
 62
18
420
0
176
1
 90
50
176
1
 90
3
176
1
 62
5
420
255
176
1
290
0
176
1
 90
50
176
1
 90
50
176
1
 90
50
176
1
290
0
176
1
 90
50
176
1
 62
256
176
0
 40
1.0
176
0
 90
2
176
1
  1
strokes_ogs.tif
176
1
290
0
176
1
 40
1.0
176
1
 40
1.0
176
1
  0
VISUALSTYLE
  5
60
102
{ACAD_REACTORS
330
16
102
}
330
16
100
AcDbVisualStyle
  2
EdgeColorOff
 70
22
177
3
291
1
 70
58
 90
2
176
1
 90
2
176
1
 90
0
176
1
 90
2
176
1
 40
0.6
176
1
 40
30.0
176
1
 62
7
420
16777215
176
1
 90
1
176
1
 90
4
176
1
 62
7
176
1
 62
257
176
1
 90
1
176
1
 90
1
176
1
 40
1.0
176
1
 90
8
176
1
 62
7
176
1
 40
1.0
176
1
 90
1
176
1
 90
6
176
1
 90
2
176
1
 62
7
176
1
 90
5
176
1
 90
0
176
1
 90
0
176
1
290
0
176
1
 90
1
176
1
 40
0.0
176
1
 90
0
176
1
290
0
176
1
290
1
176
1
290
1
176
1
290
0
176
1
290
0
176
1
290
0
176
1
290
0
176
1
290
0
176
1
290
0
176
1
 90
50
176
1
 40
0.0
176
1
 40
1.0
176
1
 90
0
176
1
 62
18
420
0
176
1
 90
50
176
1
 90
3
176
1
 62
5
420
255
176
1
290
0
176
1
 90
50
176
1
 90
50
176
1
 90
50
176
1
290
0
176
1
 90
50
176
1
 62
256
176
0
 40
1.0
176
0
 90
2
176
1
  1
strokes_ogs.tif
176
1
290
0
176
1
 40
1.0
176
1
 40
1.0
176
1
  0
VISUALSTYLE
  5
61
102
{ACAD_REACTORS
330
16
102
}
330
16
100
AcDbVisualStyle
  2
Facepattern
 70
15
177
3
291
1
 70
58
 90
2
176
1
 90
2
176
1
 90
0
176
1
 90
2
176
1
 40
0.6
176
1
 40
30.0
176
1
 62
7
420
16777215
176
1
 90
1
176
1
 90
4
176
1
 62
7
176
1
 62
257
176
1
 90
1
176
1
 90
1
176
1
 40
1.0
176
1
 90
8
176
1
 62
7
176
1
 40
1.0
176
1
 90
1
176
1
 90
6
176
1
 90
2
176
1
 62
7
176
1
 90
5
176
1
 90
0
176
1
 90
0
176
1
290
0
176
1
 90
1
176
1
 40
0.0
176
1
 90
0
176
1
290
0
176
1
290
1
176
1
290
1
176
1
290
0
176
1
290
0
176
1
290
0
176
1
290
0
176
1
290
0
176
1
290
0
176
1
 90
50
176
1
 40
0.0
176
1
 40
1.0
176
1
 90
0
176
1
 62
18
420
0
176
1
 90
50
176
1
 90
3
176
1
 62
5
420
255
176
1
290
0
176
1
 90
50
176
1
 90
50
176
1
 90
50
176
1
290
0
176
1
 90
50
176
1
 62
256
176
0
 40
1.0
176
0
 90
2
176
1
  1
strokes_ogs.tif
176
1
290
0
176
1
 40
1.0
176
1
 40
1.0
176
1
  0
VISUALSTYLE
  5
62
102
{ACAD_REACTORS
330
16
102
}
330
16
100
AcDbVisualStyle
  2
Flat
 70
0
177
3
291
1
 70
58
 90
2
176
1
 90
2
176
1
 90
0
176
1
 90
2
176
1
 40
0.6
176
1
 40
30.0
176
1
 62
7
420
16777215
176
1
 90
1
176
1
 90
4
176
1
 62
7
176
1
 62
257
176
1
 90
1
176
1
 90
1
176
1
 40
1.0
176
1
 90
8
176
1
 62
7
176
1
 40
1.0
176
1
 90
1
176
1
 90
6
176
1
 90
2
176
1
 62
7
176
1
 90
5
176
1
 90
0
176
1
 90
0
176
1
290
0
176
1
 90
1
176
1
 40
0.0
176
1
 90
0
176
1
290
0
176
1
290
1
176
1
290
1
176
1
290
0
176
1
290
0
176
1
290
0
176
1
290
0
176
1
290
0
176
1
290
0
176
1
 90
50
176
1
 40
0.0
176
1
 40
1.0
176
1
 90
0
176
1
 62
18
420
0
176
1
 90
50
176
1
 90
3
176
1
 62
5
420
255
176
1
290
0
176
1
 90
50
176
1
 90
50
176
1
 90
50
176
1
290
0
176
1
 90
50
176
1
 62
256
176
0
 40
1.0
176
0
 90
2
176
1
  1
strokes_ogs.tif
176
1
290
0
176
1
 40
1.0
176
1
 40
1.0
176
1
  0
VISUALSTYLE
  5
63
102
{ACAD_REACTORS
330
16
102
}
330
16
100
AcDbVisualStyle
  2
FlatWithEdges
 70
1
177
3
291
1
 70
58
 90
2
176
1
 90
2
176
1
 90
0
176
1
 90
2
176
1
 40
0.6
176
1
 40
30.0
176
1
 62
7
420
16777215
176
1
 90
1
176
1
 90
4
176
1
 62
7
176
1
 62
257
176
1
 90
1
176
1
 90
1
176
1
 40
1.0
176
1
 90
8
176
1
 62
7
176
1
 40
1.0
176
1
 90
1
176
1
 90
6
176
1
 90
2
176
1
 62
7
176
1
 90
5
176
1
 90
0
176
1
 90
0
176
1
290
0
176
1
 90
1
176
1
 40
0.0
176
1
 90
0
176
1
290
0
176
1
290
1
176
1
290
1
176
1
290
0
176
1
290
0
176
1
290
0
176
1
290
0
176
1
290
0
176
1
290
0
176
1
 90
50
176
1
 40
0.0
176
1
 40
1.0
176
1
 90
0
176
1
 62
18
420
0
176
1
 90
50
176
1
 90
3
176
1
 62
5
420
255
176
1
290
0
176
1
 90
50
176
1
 90
50
176
1
 90
50
176
1
290
0
176
1
 90
50
176
1
 62
256
176
0
 40
1.0
176
0
 90
2
176
1
  1
strokes_ogs.tif
176
1
290
0
176
1
 40
1.0
176
1
 40
1.0
176
1
  0
VISUALSTYLE
  5
64
102
{ACAD_REACTORS
330
16
102
}
330
16
100
AcDbVisualStyle
  2
Gouraud
 70
2
177
3
291
1
 70
58
 90
2
176
1
 90
2
176
1
 90
0
176
1
 90
2
176
1
 40
0.6
176
1
 40
30.0
176
1
 62
7
420
16777215
176
1
 90
1
176
1
 90
4
176
1
 62
7
176
1
 62
257
176
1
 90
1
176
1
 90
1
176
1
 40
1.0
176
1
 90
8
176
1
 62
7
176
1
 40
1.0
176
1
 90
1
176
1
 90
6
176
1
 90
2
176
1
 62
7
176
1
 90
5
176
1
 90
0
176
1
 90
0
176
1
290
0
176
1
 90
1
176
1
 40
0.0
176
1
 90
0
176
1
290
0
176
1
290
1
176
1
290
1
176
1
290
0
176
1
290
0
176
1
290
0
176
1
290
0
176
1
290
0
176
1
290
0
176
1
 90
50
176
1
 40
0.0
176
1
 40
1.0
176
1
 90
0
176
1
 62
18
420
0
176
1
 90
50
176
1
 90
3
176
1
 62
5
420
255
176
1
290
0
176
1
 90
50
176
1
 90
50
176
1
 90
50
176
1
290
0
176
1
 90
50
176
1
 62
256
176
0
 40
1.0
176
0
 90
2
176
1
  1
strokes_ogs.tif
176
1
290
0
176
1
 40
1.0
176
1
 40
1.0
176
1
  0
VISUALSTYLE
  5
65
102
{ACAD_REACTORS
330
16
102
}
330
16
100
AcDbVisualStyle
  2
GouraudWithEdges
 70
3
177
3
291
1
 70
58
 90
2
176
1
 90
2
176
1
 90
0
176
1
 90
2
176
1
 40
0.6
176
1
 40
30.0
176
1
 62
7
420
16777215
176
1
 90
1
176
1
 90
4
176
1
 62
7
176
1
 62
257
176
1
 90
1
176
1
 90
1
176
1
 40
1.0
176
1
 90
8
176
1
 62
7
176
1
 40
1.0
176
1
 90
1
176
1
 90
6
176
1
 90
2
176
1
 62
7
176
1
 90
5
176
1
 90
0
176
1
 90
0
176
1
290
0
176
1
 90
1
176
1
 40
0.0
176
1
 90
0
176
1
290
0
176
1
290
1
176
1
290
1
176
1
290
0
176
1
290
0
176
1
290
0
176
1
290
0
176
1
290
0
176
1
290
0
176
1
 90
50
176
1
 40
0.0
176
1
 40
1.0
176
1
 90
0
176
1
 62
18
420
0
176
1
 90
50
176
1
 90
3
176
1
 62
5
420
255
176
1
290
0
176
1
 90
50
176
1
 90
50
176
1
 90
50
176
1
290
0
176
1
 90
50
176
1
 62
256
176
0
 40
1.0
176
0
 90
2
176
1
  1
strokes_ogs.tif
176
1
290
0
176
1
 40
1.0
176
1
 40
1.0
176
1
  0
VISUALSTYLE
  5
66
102
{ACAD_REACTORS
330
16
102
}
330
16
100
AcDbVisualStyle
  2
Hidden
 70
6
177
3
291
0
 70
58
 90
2
176
1
 90
2
176
1
 90
0
176
1
 90
1
176
1
 40
0.6
176
1
 40
30.0
176
1
 62
7
420
16777215
176
1
 90
1
176
1
 90
4
176
1
 62
7
176
1
 62
257
176
1
 90
1
176
1
 90
1
176
1
 40
1.0
176
1
 90
8
176
1
 62
7
176
1
 40
1.0
176
1
 90
1
176
1
 90
6
176
1
 90
2
176
1
 62
7
176
1
 90
5
176
1
 90
0
176
1
 90
0
176
1
290
0
176
1
 90
1
176
1
 40
0.0
176
1
 90
0
176
1
290
0
176
1
290
1
176
1
290
1
176
1
290
0
176
1
290
0
176
1
290
0
176
1
290
0
176
1
290
0
176
1
290
0
176
1
 90
50
176
1
 40
0.0
176
1
 40
1.0
176
1
 90
0
176
1
 62
18
420
0
176
1
 90
50
176
1
 90
3
176
1
 62
5
420
255
176
1
290
0
176
1
 90
50
176
1
 90
50
176
1
 90
50
176
1
290
0
176
1
 90
50
176
1
 62
256
176
0
 40
1.0
176
0
 90
2
176
1
  1
strokes_ogs.tif
176
1
290
0
176
1
 40
1.0
176
1
 40
1.0
176
1
  0
VISUALSTYLE
  5
67
102
{ACAD_REACTORS
330
16
102
}
330
16
100
AcDbVisualStyle
  2
JitterOff
 70
20
177
3
291
1
 70
58
 90
2
176
1
 90
2
176
1
 90
0
176
1
 90
2
176
1
 40
0.6
176
1
 40
30.0
176
1
 62
7
420
16777215
176
1
 90
1
176
1
 90
4
176
1
 62
7
176
1
 62
257
176
1
 90
1
176
1
 90
1
176
1
 40
1.0
176
1
 90
8
176
1
 62
7
176
1
 40
1.0
176
1
 90
1
176
1
 90
6
176
1
 90
2
176
1
 62
7
176
1
 90
5
176
1
 90
0
176
1
 90
0
176
1
290
0
176
1
 90
1
176
1
 40
0.0
176
1
 90
0
176
1
290
0
176
1
290
1
176
1
290
1
176
1
290
0
176
1
290
0
176
1
290
0
176
1
290
0
176
1
290
0
176
1
290
0
176
1
 90
50
176
1
 40
0.0
176
1
 40
1.0
176
1
 90
0
176
1
 62
18
420
0
176
1
 90
50
176
1
 90
3
176
1
 62
5
420
255
176
1
290
0
176
1
 90
50
176
1
 90
50
176
1
 90
50
176
1
290
0
176
1
 90
50
176
1
 62
256
176
0
 40
1.0
176
0
 90
2
176
1
  1
strokes_ogs.tif
176
1
290
0
176
1
 40
1.0
176
1
 40
1.0
176
1
  0
VISUALSTYLE
  5
68
102
{ACAD_REACTORS
330
16
102
}
330
16
100
AcDbVisualStyle
  2
Linepattern
 70
14
177
3
291
1
 70
58
 90
2
176
1
 90
2
176
1
 90
0
176
1
 90
2
176
1
 40
0.6
176
1
 40
30.0
176
1
 62
7
420
16777215
176
1
 90
1
176
1
 90
4
176
1
 62
7
176
1
 62
257
176
1
 90
1
176
1
 90
1
176
1
 40
1.0
176
1
 90
8
176
1
 62
7
176
1
 40
1.0
176
1
 90
1
176
1
 90
6
176
1
 90
2
176
1
 62
7
176
1
 90
5
176
1
 90
0
176
1
 90
0
176
1
290
0
176
1
 90
1
176
1
 40
0.0
176
1
 90
0
176
1
290
0
176
1
290
1
176
1
290
1
176
1
290
0
176
1
290
0
176
1
290
0
176
1
290
0
176
1
290
0
176
1
290
0
176
1
 90
50
176
1
 40
0.0
176
1
 40
1.0
176
1
 90
0
176
1
 62
18
420
0
176
1
 90
50
176
1
 90
3
176
1
 62
5
420
255
176
1
290
0
176
1
 90
50
176
1
 90
50
176
1
 90
50
176
1
290
0
176
1
 90
50
176
1
 62
256
176
0
 40
1.0
176
0
 90
2
176
1
  1
strokes_ogs.tif
176
1
290
0
176
1
 40
1.0
176
1
 40
1.0
176
1
  0
VISUALSTYLE
  5
69
102
{ACAD_REACTORS
330
16
102
}
330
16
100
AcDbVisualStyle
  2
Modeling
 70
10
177
3
291
0
 70
58
 90
2
176
1
 90
2
176
1
 90
0
176
1
 90
2
176
1
 40
0.6
176
1
 40
30.0
176
1
 62
7
420
16777215
176
1
 90
1
176
1
 90
4
176
1
 62
7
176
1
 62
257
176
1
 90
1
176
1
 90
1
176
1
 40
1.0
176
1
 90
8
176
1
 62
7
176
1
 40
1.0
176
1
 90
1
176
1
 90
6
176
1
 90
2
176
1
 62
7
176
1
 90
5
176
1
 90
0
176
1
 90
0
176
1
290
0
176
1
 90
1
176
1
 40
0.0
176
1
 90
0
176
1
290
0
176
1
290
1
176
1
290
1
176
1
290
0
176
1
290
0
176
1
290
0
176
1
290
0
176
1
290
0
176
1
290
0
176
1
 90
50
176
1
 40
0.0
176
1
 40
1.0
176
1
 90
0
176
1
 62
18
420
0
176
1
 90
50
176
1
 90
3
176
1
 62
5
420
255
176
1
290
0
176
1
 90
50
176
1
 90
50
176
1
 90
50
176
1
290
0
176
1
 90
50
176
1
 62
256
176
0
 40
1.0
176
0
 90
2
176
1
  1
strokes_ogs.tif
176
1
290
0
176
1
 40
1.0
176
1
 40
1.0
176
1
  0
VISUALSTYLE
  5
6A
102
{ACAD_REACTORS
330
16
102
}
330
16
100
AcDbVisualStyle
  2
OverhangOff
 70
21
177
3
291
1
 70
58
 90
2
176
1
 90
2
176
1
 90
0
176
1
 90
2
176
1
 40
0.6
176
1
 40
30.0
176
1
 62
7
420
16777215
176
1
 90
1
176
1
 90
4
176
1
 62
7
176
1
 62
257
176
1
 90
1
176
1
 90
1
176
1
 40
1.0
176
1
 90
8
176
1
 62
7
176
1
 40
1.0
176
1
 90
1
176
1
 90
6
176
1
 90
2
176
1
 62
7
176
1
 90
5
176
1
 90
0
176
1
 90
0
176
1
290
0
176
1
 90
1
176
1
 40
0.0
176
1
 90
0
176
1
290
0
176
1
290
1
176
1
290
1
176
1
290
0
176
1
290
0
176
1
290
0
176
1
290
0
176
1
290
0
176
1
290
0
176
1
 90
50
176
1
 40
0.0
176
1
 40
1.0
176
1
 90
0
176
1
 62
18
420
0
176
1
 90
50
176
1
 90
3
176
1
 62
5
420
255
176
1
290
0
176
1
 90
50
176
1
 90
50
176
1
 90
50
176
1
290
0
176
1
 90
50
176
1
 62
256
176
0
 40
1.0
176
0
 90
2
176
1
  1
strokes_ogs.tif
176
1
290
0
176
1
 40
1.0
176
1
 40
1.0
176
1
  0
VISUALSTYLE
  5
6B
102
{ACAD_REACTORS
330
16
102
}
330
16
100
AcDbVisualStyle
  2
Realistic
 70
8
177
3
291
0
 70
58
 90
2
176
1
 90
2
176
1
 90
0
176
1
 90
2
176
1
 40
0.6
176
1
 40
30.0
176
1
 62
7
420
16777215
176
1
 90
1
176
1
 90
4
176
1
 62
7
176
1
 62
257
176
1
 90
1
176
1
 90
1
176
1
 40
1.0
176
1
 90
8
176
1
 62
7
176
1
 40
1.0
176
1
 90
1
176
1
 90
6
176
1
 90
2
176
1
 62
7
176
1
 90
5
176
1
 90
0
176
1
 90
0
176
1
290
0
176
1
 90
1
176
1
 40
0.0
176
1
 90
0
176
1
290
0
176
1
290
1
176
1
290
1
176
1
290
0
176
1
290
0
176
1
290
0
176
1
290
0
176
1
290
0
176
1
290
0
176
1
 90
50
176
1
 40
0.0
176
1
 40
1.0
176
1
 90
0
176
1
 62
18
420
0
176
1
 90
50
176
1
 90
3
176
1
 62
5
420
255
176
1
290
0
176
1
 90
50
176
1
 90
50
176
1
 90
50
176
1
290
0
176
1
 90
50
176
1
 62
256
176
0
 40
1.0
176
0
 90
2
176
1
  1
strokes_ogs.tif
176
1
290
0
176
1
 40
1.0
176
1
 40
1.0
176
1
  0
VISUALSTYLE
  5
6C
102
{ACAD_REACTORS
330
16
102
}
330
16
100
AcDbVisualStyle
  2
Shaded
 70
27
177
3
291
0
 70
58
 90
2
176
1
 90
2
176
1
 90
0
176
1
 90
2
176
1
 40
0.6
176
1
 40
30.0
176
1
 62
7
420
16777215
176
1
 90
1
176
1
 90
4
176
1
 62
7
176
1
 62
257
176
1
 90
1
176
1
 90
1
176
1
 40
1.0
176
1
 90
8
176
1
 62
7
176
1
 40
1.0
176
1
 90
1
176
1
 90
6
176
1
 90
2
176
1
 62
7
176
1
 90
5
176
1
 90
0
176
1
 90
0
176
1
290
0
176
1
 90
1
176
1
 40
0.0
176
1
 90
0
176
1
290
0
176
1
290
1
176
1
290
1
176
1
290
0
176
1
290
0
176
1
290
0
176
1
290
0
176
1
290
0
176
1
290
0
176
1
 90
50
176
1
 40
0.0
176
1
 40
1.0
176
1
 90
0
176
1
 62
18
420
0
176
1
 90
50
176
1
 90
3
176
1
 62
5
420
255
176
1
290
0
176
1
 90
50
176
1
 90
50
176
1
 90
50
176
1
290
0
176
1
 90
50
176
1
 62
256
176
0
 40
1.0
176
0
 90
2
176
1
  1
strokes_ogs.tif
176
1
290
0
176
1
 40
1.0
176
1
 40
1.0
176
1
  0
VISUALSTYLE
  5
6D
102
{ACAD_REACTORS
330
16
102
}
330
16
100
AcDbVisualStyle
  2
Shaded with edges
 70
26
177
3
291
0
 70
58
 90
2
176
1
 90
2
176
1
 90
0
176
1
 90
2
176
1
 40
0.6
176
1
 40
30.0
176
1
 62
7
420
16777215
176
1
 90
1
176
1
 90
4
176
1
 62
7
176
1
 62
257
176
1
 90
1
176
1
 90
1
176
1
 40
1.0
176
1
 90
8
176
1
 62
7
176
1
 40
1.0
176
1
 90
1
176
1
 90
6
176
1
 90
2
176
1
 62
7
176
1
 90
5
176
1
 90
0
176
1
 90
0
176
1
290
0
176
1
 90
1
176
1
 40
0.0
176
1
 90
0
176
1
290
0
176
1
290
1
176
1
290
1
176
1
290
0
176
1
290
0
176
1
290
0
176
1
290
0
176
1
290
0
176
1
290
0
176
1
 90
50
176
1
 40
0.0
176
1
 40
1.0
176
1
 90
0
176
1
 62
18
420
0
176
1
 90
50
176
1
 90
3
176
1
 62
5
420
255
176
1
290
0
176
1
 90
50
176
1
 90
50
176
1
 90
50
176
1
290
0
176
1
 90
50
176
1
 62
256
176
0
 40
1.0
176
0
 90
2
176
1
  1
strokes_ogs.tif
176
1
290
0
176
1
 40
1.0
176
1
 40
1.0
176
1
  0
VISUALSTYLE
  5
6E
102
{ACAD_REACTORS
330
16
102
}
330
16
100
AcDbVisualStyle
  2
Shades of Gray
 70
23
177
3
291
0
 70
58
 90
2
176
1
 90
2
176
1
 90
0
176
1
 90
2
176
1
 40
0.6
176
1
 40
30.0
176
1
 62
7
420
16777215
176
1
 90
1
176
1
 90
4
176
1
 62
7
176
1
 62
257
176
1
 90
1
176
1
 90
1
176
1
 40
1.0
176
1
 90
8
176
1
 62
7
176
1
 40
1.0
176
1
 90
1
176
1
 90
6
176
1
 90
2
176
1
 62
7
176
1
 90
5
176
1
 90
0
176
1
 90
0
176
1
290
0
176
1
 90
1
176
1
 40
0.0
176
1
 90
0
176
1
290
0
176
1
290
1
176
1
290
1
176
1
290
0
176
1
290
0
176
1
290
0
176
1
290
0
176
1
290
0
176
1
290
0
176
1
 90
50
176
1
 40
0.0
176
1
 40
1.0
176
1
 90
0
176
1
 62
18
420
0
176
1
 90
50
176
1
 90
3
176
1
 62
5
420
255
176
1
290
0
176
1
 90
50
176
1
 90
50
176
1
 90
50
176
1
290
0
176
1
 90
50
176
1
 62
256
176
0
 40
1.0
176
0
 90
2
176
1
  1
strokes_ogs.tif
176
1
290
0
176
1
 40
1.0
176
1
 40
1.0
176
1
  0
VISUALSTYLE
  5
6F
102
{ACAD_REACTORS
330
16
102
}
330
16
100
AcDbVisualStyle
  2
Sketchy
 70
24
177
3
291
0
 70
58
 90
2
176
1
 90
2
176
1
 90
0
176
1
 90
1
176
1
 40
0.6
176
1
 40
30.0
176
1
 62
7
420
16777215
176
1
 90
1
176
1
 90
4
176
1
 62
7
176
1
 62
257
176
1
 90
1
176
1
 90
1
176
1
 40
1.0
176
1
 90
8
176
1
 62
7
176
1
 40
1.0
176
1
 90
1
176
1
 90
6
176
1
 90
2
176
1
 62
7
176
1
 90
5
176
1
 90
0
176
1
 90
0
176
1
290
0
176
1
 90
1
176
1
 40
0.0
176
1
 90
0
176
1
290
0
176
1
290
1
176
1
290
1
176
1
290
0
176
1
290
0
176
1
290
0
176
1
290
0
176
1
290
0
176
1
290
0
176
1
 90
50
176
1
 40
0.0
176
1
 40
1.0
176
1
 90
0
176
1
 62
18
420
0
176
1
 90
50
176
1
 90
3
176
1
 62
5
420
255
176
1
290
0
176
1
 90
50
176
1
 90
50
176
1
 90
50
176
1
290
0
176
1
 90
50
176
1
 62
256
176
0
 40
1.0
176
0
 90
2
176
1
  1
strokes_ogs.tif
176
1
290
0
176
1
 40
1.0
176
1
 40
1.0
176
1
  0
VISUALSTYLE
  5
70
102
{ACAD_REACTORS
330
16
102
}
330
16
100
AcDbVisualStyle
  2
Thicken
 70
13
177
3
291
1
 70
58
 90
2
176
1
 90
2
176
1
 90
0
176
1
 90
2
176
1
 40
0.6
176
1
 40
30.0
176
1
 62
7
420
16777215
176
1
 90
1
176
1
 90
4
176
1
 62
7
176
1
 62
257
176
1
 90
1
176
1
 90
1
176
1
 40
1.0
176
1
 90
8
176
1
 62
7
176
1
 40
1.0
176
1
 90
1
176
1
 90
6
176
1
 90
2
176
1
 62
7
176
1
 90
5
176
1
 90
0
176
1
 90
0
176
1
290
0
176
1
 90
1
176
1
 40
0.0
176
1
 90
0
176
1
290
0
176
1
290
1
176
1
290
1
176
1
290
0
176
1
290
0
176
1
290
0
176
1
290
0
176
1
290
0
176
1
290
0
176
1
 90
50
176
1
 40
0.0
176
1
 40
1.0
176
1
 90
0
176
1
 62
18
420
0
176
1
 90
50
176
1
 90
3
176
1
 62
5
420
255
176
1
290
0
176
1
 90
50
176
1
 90
50
176
1
 90
50
176
1
290
0
176
1
 90
50
176
1
 62
256
176
0
 40
1.0
176
0
 90
2
176
1
  1
strokes_ogs.tif
176
1
290
0
176
1
 40
1.0
176
1
 40
1.0
176
1
  0
VISUALSTYLE
  5
71
102
{ACAD_REACTORS
330
16
102
}
330
16
100
AcDbVisualStyle
  2
Wireframe
 70
5
177
3
291
0
 70
58
 90
2
176
1
 90
2
176
1
 90
0
176
1
 90
0
176
1
 40
0.6
176
1
 40
30.0
176
1
 62
7
420
16777215
176
1
 90
1
176
1
 90
4
176
1
 62
7
176
1
 62
257
176
1
 90
1
176
1
 90
1
176
1
 40
1.0
176
1
 90
8
176
1
 62
7
176
1
 40
1.0
176
1
 90
1
176
1
 90
6
176
1
 90
2
176
1
 62
7
176
1
 90
5
176
1
 90
0
176
1
 90
0
176
1
290
0
176
1
 90
1
176
1
 40
0.0
176
1
 90
0
176
1
290
0
176
1
290
1
176
1
290
1
176
1
290
0
176
1
290
0
176
1
290
0
176
1
290
0
176
1
290
0
176
1
290
0
176
1
 90
50
176
1
 40
0.0
176
1
 40
1.0
176
1
 90
0
176
1
 62
18
420
0
176
1
 90
50
176
1
 90
3
176
1
 62
5
420
255
176
1
290
0
176
1
 90
50
176
1
 90
50
176
1
 90
50
176
1
290
0
176
1
 90
50
176
1
 62
256
176
0
 40
1.0
176
0
 90
2
176
1
  1
strokes_ogs.tif
176
1
290
0
176
1
 40
1.0
176
1
 40
1.0
176
1
  0
VISUALSTYLE
  5
72
102
{ACAD_REACTORS
330
16
102
}
330
16
100
AcDbVisualStyle
  2
X-Ray
 70
25
177
3
291
0
 70
58
 90
2
176
1
 90
2
176
1
 90
0
176
1
 90
2
176
1
 40
0.5
176
1
 40
30.0
176
1
 62
7
420
16777215
176
1
 90
1
176
1
 90
4
176
1
 62
7
176
1
 62
257
176
1
 90
1
176
1
 90
1
176
1
 40
1.0
176
1
 90
8
176
1
 62
7
176
1
 40
1.0
176
1
 90
1
176
1
 90
6
176
1
 90
2
176
1
 62
7
176
1
 90
5
176
1
 90
0
176
1
 90
0
176
1
290
0
176
1
 90
1
176
1
 40
0.0
176
1
 90
0
176
1
290
0
176
1
290
1
176
1
290
1
176
1
290
0
176
1
290
0
176
1
290
0
176
1
290
0
176
1
290
0
176
1
290
0
176
1
 90
50
176
1
 40
0.0
176
1
 40
1.0
176
1
 90
0
176
1
 62
18
420
0
176
1
 90
50
176
1
 90
3
176
1
 62
5
420
255
176
1
290
0
176
1
 90
50
176
1
 90
50
176
1
 90
50
176
1
290
0
176
1
 90
50
176
1
 62
256
176
0
 40
1.0
176
0
 90
2
176
1
  1
strokes_ogs.tif
176
1
290
0
176
1
 40
1.0
176
1
 40
1.0
176
1
  0
DICTIONARYVAR
  5
131
330
2D
100
DictionaryVariables
280
0
  1
1.4.4 @ 2026-10-03T23:41:01.353016+00:00
  0
ENDSEC
  0
EOF
